<svg version="1.1" xmlns="http://www.w3.org/2000/svg" viewBox="0 0 1185.2 1226" width="1185.2" height="1226">
  <!-- svg-source:excalidraw -->
  
  <defs>
    <style class="style-fonts">
      @font-face {
        font-family: "Virgil";
        src: url("https://unpkg.com/@excalidraw/excalidraw@undefined/dist/excalidraw-assets/Virgil.woff2");
      }
      @font-face {
        font-family: "Cascadia";
        src: url("https://unpkg.com/@excalidraw/excalidraw@undefined/dist/excalidraw-assets/Cascadia.woff2");
      }
      @font-face {
        font-family: "Assistant";
        src: url("https://unpkg.com/@excalidraw/excalidraw@undefined/dist/excalidraw-assets/Assistant-Regular.woff2");
      }
    </style>
    
  </defs>
  <rect x="0" y="0" width="1185.2" height="1226" fill="#ffffff"/><g stroke-opacity="0.9" fill-opacity="0.9" stroke-linecap="round" transform="translate(35 54) rotate(0 90 64)"><path d="M32 0 C75.57 0, 119.15 0, 148 0 C169.33 0, 180 10.67, 180 32 C180 54.42, 180 76.83, 180 96 C180 117.33, 169.33 128, 148 128 C110.47 128, 72.94 128, 32 128 C10.67 128, 0 117.33, 0 96 C0 79.94, 0 63.87, 0 32 C0 10.67, 10.67 0, 32 0" stroke="none" stroke-width="0" fill="#ffc9c9"/><path d="M32 0 C64.18 0, 96.35 0, 148 0 M32 0 C59.89 0, 87.78 0, 148 0 M148 0 C169.33 0, 180 10.67, 180 32 M148 0 C169.33 0, 180 10.67, 180 32 M180 32 C180 47.39, 180 62.78, 180 96 M180 32 C180 49.31, 180 66.62, 180 96 M180 96 C180 117.33, 169.33 128, 148 128 M180 96 C180 117.33, 169.33 128, 148 128 M148 128 C121.17 128, 94.34 128, 32 128 M148 128 C114.7 128, 81.4 128, 32 128 M32 128 C10.67 128, 0 117.33, 0 96 M32 128 C10.67 128, 0 117.33, 0 96 M0 96 C0 81.31, 0 66.62, 0 32 M0 96 C0 79.56, 0 63.12, 0 32 M0 32 C0 10.67, 10.67 0, 32 0 M0 32 C0 10.67, 10.67 0, 32 0" stroke="#e03131" stroke-width="1" fill="none"/></g><g stroke-opacity="0.9" fill-opacity="0.9" transform="translate(45 108) rotate(0 80 10)"><text x="80" y="0" font-family="Helvetica, Segoe UI Emoji" font-size="16px" fill="#e03131" text-anchor="middle" style="white-space: pre;" direction="ltr" dominant-baseline="text-before-edge">☁️</text><text x="80" y="18.4" font-family="Helvetica, Segoe UI Emoji" font-size="16px" fill="#e03131" text-anchor="middle" style="white-space: pre;" direction="ltr" dominant-baseline="text-before-edge">PyPI</text><text x="80" y="36.8" font-family="Helvetica, Segoe UI Emoji" font-size="16px" fill="#e03131" text-anchor="middle" style="white-space: pre;" direction="ltr" dominant-baseline="text-before-edge">(wheels)</text></g><g stroke-opacity="0.9" fill-opacity="0.9" stroke-linecap="round" transform="translate(323 66) rotate(0 90 52)"><path d="M26 0 C67.69 0, 109.39 0, 154 0 C171.33 0, 180 8.67, 180 26 C180 37.16, 180 48.31, 180 78 C180 95.33, 171.33 104, 154 104 C125.41 104, 96.83 104, 26 104 C8.67 104, 0 95.33, 0 78 C0 64.02, 0 50.03, 0 26 C0 8.67, 8.67 0, 26 0" stroke="none" stroke-width="0" fill="#d0bfff"/><path d="M26 0 C63.05 0, 100.09 0, 154 0 M26 0 C63.49 0, 100.97 0, 154 0 M154 0 C171.33 0, 180 8.67, 180 26 M154 0 C171.33 0, 180 8.67, 180 26 M180 26 C180 44.73, 180 63.46, 180 78 M180 26 C180 39.88, 180 53.76, 180 78 M180 78 C180 95.33, 171.33 104, 154 104 M180 78 C180 95.33, 171.33 104, 154 104 M154 104 C113.27 104, 72.54 104, 26 104 M154 104 C115.39 104, 76.79 104, 26 104 M26 104 C8.67 104, 0 95.33, 0 78 M26 104 C8.67 104, 0 95.33, 0 78 M0 78 C0 59.62, 0 41.24, 0 26 M0 78 C0 60.98, 0 43.96, 0 26 M0 26 C0 8.67, 8.67 0, 26 0 M0 26 C0 8.67, 8.67 0, 26 0" stroke="#7048e8" stroke-width="1" fill="none"/></g><g stroke-opacity="0.9" fill-opacity="0.9" transform="translate(333 108) rotate(0 80 10)"><text x="80" y="0" font-family="Helvetica, Segoe UI Emoji" font-size="16px" fill="#7048e8" text-anchor="middle" style="white-space: pre;" direction="ltr" dominant-baseline="text-before-edge">CPython 3.13</text><text x="80" y="18.4" font-family="Helvetica, Segoe UI Emoji" font-size="16px" fill="#7048e8" text-anchor="middle" style="white-space: pre;" direction="ltr" dominant-baseline="text-before-edge">Stdlib</text></g><g stroke-opacity="0.9" fill-opacity="0.9" stroke-linecap="round" transform="translate(612 54) rotate(0 103.60000000000002 64)"><path d="M32 0 C77.3 0, 122.6 0, 175.2 0 C196.53 0, 207.2 10.67, 207.2 32 C207.2 51.75, 207.2 71.5, 207.2 96 C207.2 117.33, 196.53 128, 175.2 128 C144.81 128, 114.43 128, 32 128 C10.67 128, 0 117.33, 0 96 C0 82.11, 0 68.23, 0 32 C0 10.67, 10.67 0, 32 0" stroke="none" stroke-width="0" fill="#ffa8a8"/><path d="M32 0 C68.56 0, 105.12 0, 175.2 0 M32 0 C64.3 0, 96.6 0, 175.2 0 M175.2 0 C196.53 0, 207.2 10.67, 207.2 32 M175.2 0 C196.53 0, 207.2 10.67, 207.2 32 M207.2 32 C207.2 48.26, 207.2 64.53, 207.2 96 M207.2 32 C207.2 52.4, 207.2 72.81, 207.2 96 M207.2 96 C207.2 117.33, 196.53 128, 175.2 128 M207.2 96 C207.2 117.33, 196.53 128, 175.2 128 M175.2 128 C120.15 128, 65.09 128, 32 128 M175.2 128 C124.76 128, 74.31 128, 32 128 M32 128 C10.67 128, 0 117.33, 0 96 M32 128 C10.67 128, 0 117.33, 0 96 M0 96 C0 80.73, 0 65.46, 0 32 M0 96 C0 72.14, 0 48.28, 0 32 M0 32 C0 10.67, 10.67 0, 32 0 M0 32 C0 10.67, 10.67 0, 32 0" stroke="#c92a2a" stroke-width="1" fill="none"/></g><g stroke-opacity="0.9" fill-opacity="0.9" transform="translate(622 108) rotate(0 93.60000000000002 10)"><text x="93.60000000000001" y="0" font-family="Helvetica, Segoe UI Emoji" font-size="16px" fill="#c92a2a" text-anchor="middle" style="white-space: pre;" direction="ltr" dominant-baseline="text-before-edge">WASI Polyfills</text><text x="93.60000000000001" y="18.4" font-family="Helvetica, Segoe UI Emoji" font-size="16px" fill="#c92a2a" text-anchor="middle" style="white-space: pre;" direction="ltr" dominant-baseline="text-before-edge">socket, ssl, select</text><text x="93.60000000000001" y="36.8" font-family="Helvetica, Segoe UI Emoji" font-size="16px" fill="#c92a2a" text-anchor="middle" style="white-space: pre;" direction="ltr" dominant-baseline="text-before-edge">threading, logging</text></g><g stroke-opacity="0.9" fill-opacity="0.9" stroke-linecap="round" transform="translate(927 66) rotate(0 90.39999999999998 52)"><path d="M26 0 C67 0, 108.01 0, 154.8 0 C172.13 0, 180.8 8.67, 180.8 26 C180.8 37.05, 180.8 48.09, 180.8 78 C180.8 95.33, 172.13 104, 154.8 104 C116.51 104, 78.22 104, 26 104 C8.67 104, 0 95.33, 0 78 C0 61.25, 0 44.5, 0 26 C0 8.67, 8.67 0, 26 0" stroke="none" stroke-width="0" fill="#e599f7"/><path d="M26 0 C76.32 0, 126.64 0, 154.8 0 M26 0 C51.92 0, 77.83 0, 154.8 0 M154.8 0 C172.13 0, 180.8 8.67, 180.8 26 M154.8 0 C172.13 0, 180.8 8.67, 180.8 26 M180.8 26 C180.8 37.91, 180.8 49.83, 180.8 78 M180.8 26 C180.8 43.02, 180.8 60.03, 180.8 78 M180.8 78 C180.8 95.33, 172.13 104, 154.8 104 M180.8 78 C180.8 95.33, 172.13 104, 154.8 104 M154.8 104 C119.82 104, 84.85 104, 26 104 M154.8 104 C123.3 104, 91.8 104, 26 104 M26 104 C8.67 104, 0 95.33, 0 78 M26 104 C8.67 104, 0 95.33, 0 78 M0 78 C0 58.08, 0 38.17, 0 26 M0 78 C0 63.48, 0 48.95, 0 26 M0 26 C0 8.67, 8.67 0, 26 0 M0 26 C0 8.67, 8.67 0, 26 0" stroke="#9c36b5" stroke-width="1" fill="none"/></g><g stroke-opacity="0.9" fill-opacity="0.9" transform="translate(937 108) rotate(0 80.39999999999998 10)"><text x="80.4" y="0" font-family="Helvetica, Segoe UI Emoji" font-size="16px" fill="#9c36b5" text-anchor="middle" style="white-space: pre;" direction="ltr" dominant-baseline="text-before-edge">C Extensions</text><text x="80.4" y="18.4" font-family="Helvetica, Segoe UI Emoji" font-size="16px" fill="#9c36b5" text-anchor="middle" style="white-space: pre;" direction="ltr" dominant-baseline="text-before-edge">(recipes/*.json)</text></g><g stroke-opacity="0.9" fill-opacity="0.9" stroke-linecap="round" transform="translate(89 302) rotate(0 120 64)"><path d="M32 0 C72.19 0, 112.38 0, 208 0 C229.33 0, 240 10.67, 240 32 C240 53.29, 240 74.57, 240 96 C240 117.33, 229.33 128, 208 128 C172.05 128, 136.09 128, 32 128 C10.67 128, 0 117.33, 0 96 C0 72.31, 0 48.63, 0 32 C0 10.67, 10.67 0, 32 0" stroke="none" stroke-width="0" fill="#ffec99"/><path d="M32 0 C94.08 0, 156.16 0, 208 0 M32 0 C75.65 0, 119.3 0, 208 0 M208 0 C229.33 0, 240 10.67, 240 32 M208 0 C229.33 0, 240 10.67, 240 32 M240 32 C240 46.43, 240 60.86, 240 96 M240 32 C240 51.43, 240 70.87, 240 96 M240 96 C240 117.33, 229.33 128, 208 128 M240 96 C240 117.33, 229.33 128, 208 128 M208 128 C140.34 128, 72.67 128, 32 128 M208 128 C148 128, 87.99 128, 32 128 M32 128 C10.67 128, 0 117.33, 0 96 M32 128 C10.67 128, 0 117.33, 0 96 M0 96 C0 73.45, 0 50.91, 0 32 M0 96 C0 77.31, 0 58.63, 0 32 M0 32 C0 10.67, 10.67 0, 32 0 M0 32 C0 10.67, 10.67 0, 32 0" stroke="#f08c00" stroke-width="1" fill="none"/></g><g stroke-opacity="0.9" fill-opacity="0.9" transform="translate(99 356) rotate(0 110 10)"><text x="110" y="0" font-family="Helvetica, Segoe UI Emoji" font-size="16px" fill="#f08c00" text-anchor="middle" style="white-space: pre;" direction="ltr" dominant-baseline="text-before-edge">site-packages.zip</text><text x="110" y="18.4" font-family="Helvetica, Segoe UI Emoji" font-size="16px" fill="#f08c00" text-anchor="middle" style="white-space: pre;" direction="ltr" dominant-baseline="text-before-edge">32 pure Python pkgs</text><text x="110" y="36.8" font-family="Helvetica, Segoe UI Emoji" font-size="16px" fill="#f08c00" text-anchor="middle" style="white-space: pre;" direction="ltr" dominant-baseline="text-before-edge">jinja2, click, bs4, yaml...</text></g><g stroke-opacity="0.9" fill-opacity="0.9" stroke-linecap="round" transform="translate(466 302) rotate(0 120 64)"><path d="M32 0 C82.02 0, 132.04 0, 208 0 C229.33 0, 240 10.67, 240 32 C240 46.48, 240 60.96, 240 96 C240 117.33, 229.33 128, 208 128 C158.5 128, 109 128, 32 128 C10.67 128, 0 117.33, 0 96 C0 74.86, 0 53.72, 0 32 C0 10.67, 10.67 0, 32 0" stroke="none" stroke-width="0" fill="#d0bfff"/><path d="M32 0 C87.35 0, 142.69 0, 208 0 M32 0 C93.46 0, 154.92 0, 208 0 M208 0 C229.33 0, 240 10.67, 240 32 M208 0 C229.33 0, 240 10.67, 240 32 M240 32 C240 50.05, 240 68.1, 240 96 M240 32 C240 48.67, 240 65.34, 240 96 M240 96 C240 117.33, 229.33 128, 208 128 M240 96 C240 117.33, 229.33 128, 208 128 M208 128 C156.08 128, 104.15 128, 32 128 M208 128 C152.16 128, 96.32 128, 32 128 M32 128 C10.67 128, 0 117.33, 0 96 M32 128 C10.67 128, 0 117.33, 0 96 M0 96 C0 77.64, 0 59.27, 0 32 M0 96 C0 79.56, 0 63.12, 0 32 M0 32 C0 10.67, 10.67 0, 32 0 M0 32 C0 10.67, 10.67 0, 32 0" stroke="#7048e8" stroke-width="1" fill="none"/></g><g stroke-opacity="0.9" fill-opacity="0.9" transform="translate(476 356) rotate(0 110 10)"><text x="110" y="0" font-family="Helvetica, Segoe UI Emoji" font-size="16px" fill="#7048e8" text-anchor="middle" style="white-space: pre;" direction="ltr" dominant-baseline="text-before-edge">stdlib-fs.ts</text><text x="110" y="18.4" font-family="Helvetica, Segoe UI Emoji" font-size="16px" fill="#7048e8" text-anchor="middle" style="white-space: pre;" direction="ltr" dominant-baseline="text-before-edge">193 modules as</text><text x="110" y="36.8" font-family="Helvetica, Segoe UI Emoji" font-size="16px" fill="#7048e8" text-anchor="middle" style="white-space: pre;" direction="ltr" dominant-baseline="text-before-edge">TS string constants</text></g><g stroke-opacity="0.9" fill-opacity="0.9" stroke-linecap="round" transform="translate(829 302) rotate(0 120 64)"><path d="M32 0 C78.14 0, 124.28 0, 208 0 C229.33 0, 240 10.67, 240 32 C240 54.7, 240 77.4, 240 96 C240 117.33, 229.33 128, 208 128 C153.8 128, 99.6 128, 32 128 C10.67 128, 0 117.33, 0 96 C0 75.56, 0 55.11, 0 32 C0 10.67, 10.67 0, 32 0" stroke="none" stroke-width="0" fill="#e599f7"/><path d="M32 0 C95.01 0, 158.02 0, 208 0 M32 0 C71.75 0, 111.5 0, 208 0 M208 0 C229.33 0, 240 10.67, 240 32 M208 0 C229.33 0, 240 10.67, 240 32 M240 32 C240 50.29, 240 68.57, 240 96 M240 32 C240 57.23, 240 82.47, 240 96 M240 96 C240 117.33, 229.33 128, 208 128 M240 96 C240 117.33, 229.33 128, 208 128 M208 128 C169.02 128, 130.05 128, 32 128 M208 128 C163.09 128, 118.18 128, 32 128 M32 128 C10.67 128, 0 117.33, 0 96 M32 128 C10.67 128, 0 117.33, 0 96 M0 96 C0 80.88, 0 65.76, 0 32 M0 96 C0 73.99, 0 51.99, 0 32 M0 32 C0 10.67, 10.67 0, 32 0 M0 32 C0 10.67, 10.67 0, 32 0" stroke="#9c36b5" stroke-width="1" fill="none"/></g><g stroke-opacity="0.9" fill-opacity="0.9" transform="translate(839 356) rotate(0 110 10)"><text x="110" y="0" font-family="Helvetica, Segoe UI Emoji" font-size="16px" fill="#9c36b5" text-anchor="middle" style="white-space: pre;" direction="ltr" dominant-baseline="text-before-edge">.wasm side modules</text><text x="110" y="18.4" font-family="Helvetica, Segoe UI Emoji" font-size="16px" fill="#9c36b5" text-anchor="middle" style="white-space: pre;" direction="ltr" dominant-baseline="text-before-edge">markupsafe, numpy...</text><text x="110" y="36.8" font-family="Helvetica, Segoe UI Emoji" font-size="16px" fill="#9c36b5" text-anchor="middle" style="white-space: pre;" direction="ltr" dominant-baseline="text-before-edge">(zig cc → wasm32-wasi)</text></g><g stroke-opacity="0.9" fill-opacity="0.9" stroke-linecap="round" transform="translate(416 533) rotate(0 170 30)"><path d="M15 0 C93.04 0, 171.09 0, 325 0 C335 0, 340 5, 340 15 C340 25.76, 340 36.52, 340 45 C340 55, 335 60, 325 60 C241.52 60, 158.03 60, 15 60 C5 60, 0 55, 0 45 C0 37.18, 0 29.37, 0 15 C0 5, 5 0, 15 0" stroke="none" stroke-width="0" fill="#a5d8ff"/><path d="M15 0 C85.14 0, 155.27 0, 325 0 M15 0 C105.06 0, 195.12 0, 325 0 M325 0 C335 0, 340 5, 340 15 M325 0 C335 0, 340 5, 340 15 M340 15 C340 25.12, 340 35.25, 340 45 M340 15 C340 21.28, 340 27.57, 340 45 M340 45 C340 55, 335 60, 325 60 M340 45 C340 55, 335 60, 325 60 M325 60 C215.04 60, 105.09 60, 15 60 M325 60 C240.79 60, 156.59 60, 15 60 M15 60 C5 60, 0 55, 0 45 M15 60 C5 60, 0 55, 0 45 M0 45 C0 33.25, 0 21.5, 0 15 M0 45 C0 35.79, 0 26.58, 0 15 M0 15 C0 5, 5 0, 15 0 M0 15 C0 5, 5 0, 15 0" stroke="#1971c2" stroke-width="1" fill="none"/></g><g stroke-opacity="0.9" fill-opacity="0.9" transform="translate(426 553) rotate(0 160 10)"><text x="160" y="0" font-family="Helvetica, Segoe UI Emoji" font-size="16px" fill="#1971c2" text-anchor="middle" style="white-space: pre;" direction="ltr" dominant-baseline="text-before-edge">🖥️</text><text x="160" y="18.4" font-family="Helvetica, Segoe UI Emoji" font-size="16px" fill="#1971c2" text-anchor="middle" style="white-space: pre;" direction="ltr" dominant-baseline="text-before-edge">CF Worker Bundle</text></g><g stroke-opacity="0.9" fill-opacity="0.9" stroke-linecap="round" transform="translate(168 717) rotate(0 100 52)"><path d="M26 0 C80.23 0, 134.46 0, 174 0 C191.33 0, 200 8.67, 200 26 C200 40.56, 200 55.12, 200 78 C200 95.33, 191.33 104, 174 104 C124.61 104, 75.23 104, 26 104 C8.67 104, 0 95.33, 0 78 C0 57.6, 0 37.2, 0 26 C0 8.67, 8.67 0, 26 0" stroke="none" stroke-width="0" fill="#b2f2bb"/><path d="M26 0 C60.41 0, 94.83 0, 174 0 M26 0 C62.94 0, 99.88 0, 174 0 M174 0 C191.33 0, 200 8.67, 200 26 M174 0 C191.33 0, 200 8.67, 200 26 M200 26 C200 40.37, 200 54.73, 200 78 M200 26 C200 41.23, 200 56.46, 200 78 M200 78 C200 95.33, 191.33 104, 174 104 M200 78 C200 95.33, 191.33 104, 174 104 M174 104 C133.27 104, 92.54 104, 26 104 M174 104 C129.56 104, 85.12 104, 26 104 M26 104 C8.67 104, 0 95.33, 0 78 M26 104 C8.67 104, 0 95.33, 0 78 M0 78 C0 62.33, 0 46.65, 0 26 M0 78 C0 59.5, 0 41, 0 26 M0 26 C0 8.67, 8.67 0, 26 0 M0 26 C0 8.67, 8.67 0, 26 0" stroke="#2f9e44" stroke-width="1" fill="none"/></g><g stroke-opacity="0.9" fill-opacity="0.9" transform="translate(178 759) rotate(0 90 10)"><text x="90" y="0" font-family="Helvetica, Segoe UI Emoji" font-size="16px" fill="#2f9e44" text-anchor="middle" style="white-space: pre;" direction="ltr" dominant-baseline="text-before-edge">MemFS</text><text x="90" y="18.4" font-family="Helvetica, Segoe UI Emoji" font-size="16px" fill="#2f9e44" text-anchor="middle" style="white-space: pre;" direction="ltr" dominant-baseline="text-before-edge">(/stdlib/*)</text></g><g stroke-opacity="0.9" fill-opacity="0.9" stroke-linecap="round" transform="translate(476 705) rotate(0 110 64)"><path d="M32 0 C76.79 0, 121.59 0, 188 0 C209.33 0, 220 10.67, 220 32 C220 52.01, 220 72.01, 220 96 C220 117.33, 209.33 128, 188 128 C139.58 128, 91.15 128, 32 128 C10.67 128, 0 117.33, 0 96 C0 80.9, 0 65.79, 0 32 C0 10.67, 10.67 0, 32 0" stroke="none" stroke-width="0" fill="#ffe8cc"/><path d="M32 0 C88.53 0, 145.06 0, 188 0 M32 0 C87.96 0, 143.93 0, 188 0 M188 0 C209.33 0, 220 10.67, 220 32 M188 0 C209.33 0, 220 10.67, 220 32 M220 32 C220 51.91, 220 71.82, 220 96 M220 32 C220 51.19, 220 70.37, 220 96 M220 96 C220 117.33, 209.33 128, 188 128 M220 96 C220 117.33, 209.33 128, 188 128 M188 128 C143.29 128, 98.58 128, 32 128 M188 128 C125.79 128, 63.58 128, 32 128 M32 128 C10.67 128, 0 117.33, 0 96 M32 128 C10.67 128, 0 117.33, 0 96 M0 96 C0 74.71, 0 53.42, 0 32 M0 96 C0 82.23, 0 68.47, 0 32 M0 32 C0 10.67, 10.67 0, 32 0 M0 32 C0 10.67, 10.67 0, 32 0" stroke="#fd7e14" stroke-width="1" fill="none"/></g><g stroke-opacity="0.9" fill-opacity="0.9" transform="translate(486 759) rotate(0 100 10)"><text x="100" y="0" font-family="Helvetica, Segoe UI Emoji" font-size="16px" fill="#fd7e14" text-anchor="middle" style="white-space: pre;" direction="ltr" dominant-baseline="text-before-edge">PYTHONPATH</text><text x="100" y="18.4" font-family="Helvetica, Segoe UI Emoji" font-size="16px" fill="#fd7e14" text-anchor="middle" style="white-space: pre;" direction="ltr" dominant-baseline="text-before-edge">/stdlib:/stdlib/</text><text x="100" y="36.8" font-family="Helvetica, Segoe UI Emoji" font-size="16px" fill="#fd7e14" text-anchor="middle" style="white-space: pre;" direction="ltr" dominant-baseline="text-before-edge">site-packages.zip</text></g><g stroke-opacity="0.9" fill-opacity="0.9" stroke-linecap="round" transform="translate(804 705) rotate(0 110 64)"><path d="M32 0 C69.85 0, 107.7 0, 188 0 C209.33 0, 220 10.67, 220 32 C220 55.55, 220 79.11, 220 96 C220 117.33, 209.33 128, 188 128 C154.84 128, 121.69 128, 32 128 C10.67 128, 0 117.33, 0 96 C0 79.58, 0 63.16, 0 32 C0 10.67, 10.67 0, 32 0" stroke="none" stroke-width="0" fill="#e599f7"/><path d="M32 0 C74.66 0, 117.32 0, 188 0 M32 0 C76.05 0, 120.11 0, 188 0 M188 0 C209.33 0, 220 10.67, 220 32 M188 0 C209.33 0, 220 10.67, 220 32 M220 32 C220 45.06, 220 58.12, 220 96 M220 32 C220 56.98, 220 81.95, 220 96 M220 96 C220 117.33, 209.33 128, 188 128 M220 96 C220 117.33, 209.33 128, 188 128 M188 128 C153.59 128, 119.17 128, 32 128 M188 128 C139.22 128, 90.45 128, 32 128 M32 128 C10.67 128, 0 117.33, 0 96 M32 128 C10.67 128, 0 117.33, 0 96 M0 96 C0 78.78, 0 61.55, 0 32 M0 96 C0 79.75, 0 63.49, 0 32 M0 32 C0 10.67, 10.67 0, 32 0 M0 32 C0 10.67, 10.67 0, 32 0" stroke="#9c36b5" stroke-width="1" fill="none"/></g><g stroke-opacity="0.9" fill-opacity="0.9" transform="translate(814 759) rotate(0 100 10)"><text x="100" y="0" font-family="Helvetica, Segoe UI Emoji" font-size="16px" fill="#9c36b5" text-anchor="middle" style="white-space: pre;" direction="ltr" dominant-baseline="text-before-edge">dlopen polyfill</text><text x="100" y="18.4" font-family="Helvetica, Segoe UI Emoji" font-size="16px" fill="#9c36b5" text-anchor="middle" style="white-space: pre;" direction="ltr" dominant-baseline="text-before-edge">shared memory</text><text x="100" y="36.8" font-family="Helvetica, Segoe UI Emoji" font-size="16px" fill="#9c36b5" text-anchor="middle" style="white-space: pre;" direction="ltr" dominant-baseline="text-before-edge">side module loading</text></g><g stroke-opacity="0.9" fill-opacity="0.9" stroke-linecap="round" transform="translate(416 953) rotate(0 170 30)"><path d="M15 0 C107.17 0, 199.35 0, 325 0 C335 0, 340 5, 340 15 C340 22.11, 340 29.23, 340 45 C340 55, 335 60, 325 60 C234.99 60, 144.97 60, 15 60 C5 60, 0 55, 0 45 C0 33.05, 0 21.11, 0 15 C0 5, 5 0, 15 0" stroke="none" stroke-width="0" fill="#d0bfff"/><path d="M15 0 C92.23 0, 169.45 0, 325 0 M15 0 C137.44 0, 259.88 0, 325 0 M325 0 C335 0, 340 5, 340 15 M325 0 C335 0, 340 5, 340 15 M340 15 C340 24.89, 340 34.77, 340 45 M340 15 C340 23.23, 340 31.46, 340 45 M340 45 C340 55, 335 60, 325 60 M340 45 C340 55, 335 60, 325 60 M325 60 C235.65 60, 146.29 60, 15 60 M325 60 C256.2 60, 187.39 60, 15 60 M15 60 C5 60, 0 55, 0 45 M15 60 C5 60, 0 55, 0 45 M0 45 C0 35.26, 0 25.53, 0 15 M0 45 C0 35.86, 0 26.71, 0 15 M0 15 C0 5, 5 0, 15 0 M0 15 C0 5, 5 0, 15 0" stroke="#7048e8" stroke-width="1" fill="none"/></g><g stroke-opacity="0.9" fill-opacity="0.9" transform="translate(426 973) rotate(0 160 10)"><text x="160" y="0" font-family="Helvetica, Segoe UI Emoji" font-size="16px" fill="#7048e8" text-anchor="middle" style="white-space: pre;" direction="ltr" dominant-baseline="text-before-edge">🖥️</text><text x="160" y="18.4" font-family="Helvetica, Segoe UI Emoji" font-size="16px" fill="#7048e8" text-anchor="middle" style="white-space: pre;" direction="ltr" dominant-baseline="text-before-edge">CPython 3.13</text><text x="160" y="36.8" font-family="Helvetica, Segoe UI Emoji" font-size="16px" fill="#7048e8" text-anchor="middle" style="white-space: pre;" direction="ltr" dominant-baseline="text-before-edge">python.wasm + Asyncify</text></g><g stroke-opacity="0.9" fill-opacity="0.9" stroke-linecap="round" transform="translate(446 1116) rotate(0 140 40)"><path d="M20 0 C97.72 0, 175.43 0, 260 0 C273.33 0, 280 6.67, 280 20 C280 28.61, 280 37.23, 280 60 C280 73.33, 273.33 80, 260 80 C179.13 80, 98.25 80, 20 80 C6.67 80, 0 73.33, 0 60 C0 48.66, 0 37.33, 0 20 C0 6.67, 6.67 0, 20 0" stroke="none" stroke-width="0" fill="#e7f5ff"/><path d="M20 0 C68.63 0, 117.26 0, 260 0 M20 0 C71.1 0, 122.2 0, 260 0 M260 0 C273.33 0, 280 6.67, 280 20 M260 0 C273.33 0, 280 6.67, 280 20 M280 20 C280 28.04, 280 36.08, 280 60 M280 20 C280 34.72, 280 49.44, 280 60 M280 60 C280 73.33, 273.33 80, 260 80 M280 60 C280 73.33, 273.33 80, 260 80 M260 80 C199.12 80, 138.24 80, 20 80 M260 80 C193.37 80, 126.74 80, 20 80 M20 80 C6.67 80, 0 73.33, 0 60 M20 80 C6.67 80, 0 73.33, 0 60 M0 60 C0 49.07, 0 38.14, 0 20 M0 60 C0 50.14, 0 40.28, 0 20 M0 20 C0 6.67, 6.67 0, 20 0 M0 20 C0 6.67, 6.67 0, 20 0" stroke="#1971c2" stroke-width="1" fill="none"/></g><g stroke-opacity="0.9" fill-opacity="0.9" transform="translate(456 1146) rotate(0 130 10)"><text x="130" y="0" font-family="Helvetica, Segoe UI Emoji" font-size="16px" fill="#1971c2" text-anchor="middle" style="white-space: pre;" direction="ltr" dominant-baseline="text-before-edge">👤</text><text x="130" y="18.4" font-family="Helvetica, Segoe UI Emoji" font-size="16px" fill="#1971c2" text-anchor="middle" style="white-space: pre;" direction="ltr" dominant-baseline="text-before-edge">import jinja2</text><text x="130" y="36.8" font-family="Helvetica, Segoe UI Emoji" font-size="16px" fill="#1971c2" text-anchor="middle" style="white-space: pre;" direction="ltr" dominant-baseline="text-before-edge">import numpy</text><text x="130" y="55.199999999999996" font-family="Helvetica, Segoe UI Emoji" font-size="16px" fill="#1971c2" text-anchor="middle" style="white-space: pre;" direction="ltr" dominant-baseline="text-before-edge">from pymode.workers</text><text x="130" y="73.6" font-family="Helvetica, Segoe UI Emoji" font-size="16px" fill="#1971c2" text-anchor="middle" style="white-space: pre;" direction="ltr" dominant-baseline="text-before-edge">  import Response</text></g><g stroke-linecap="round"><g transform="translate(119 183) rotate(0 14.5 58)"><path d="M0 0 C-0.84 11.8, -1.69 23.59, -3 42 M0 0 C-0.81 11.33, -1.62 22.67, -3 42 M-3 42 C-3 50.93, -3 59.87, -3 76 M-3 42 C-3 53.59, -3 65.17, -3 76 M-3 76 C10.64 91.59, 24.29 107.18, 32 116 M-3 76 C9.54 90.33, 22.08 104.67, 32 116" stroke="#f08c00" stroke-width="2" fill="none"/></g><g transform="translate(119 183) rotate(0 14.5 58)"><path d="M8.71 103.19 C15.25 106.79, 21.79 110.39, 32 116 M8.71 103.19 C15 106.65, 21.28 110.1, 32 116" stroke="#f08c00" stroke-width="2" fill="none"/></g><g transform="translate(119 183) rotate(0 14.5 58)"><path d="M22.4 91.22 C25.09 98.18, 27.79 105.14, 32 116 M22.4 91.22 C24.99 97.91, 27.58 104.6, 32 116" stroke="#f08c00" stroke-width="2" fill="none"/></g></g><mask/><g transform="translate(108 230) rotate(0 92 10)"><text x="92" y="0" font-family="Virgil, Segoe UI Emoji" font-size="14px" fill="#1e1e1e" text-anchor="middle" style="white-space: pre;" direction="ltr" dominant-baseline="text-before-edge">pymode add / install</text></g><g stroke-linecap="round"><g transform="translate(422 170) rotate(0 42 68.5)"><path d="M0 0 C6.05 31.65, 12.09 63.31, 17 89 M0 0 C6.35 33.23, 12.69 66.46, 17 89 M17 89 C37.16 103.44, 57.31 117.88, 84 137 M17 89 C36.33 102.85, 55.66 116.69, 84 137" stroke="#7048e8" stroke-width="2" fill="none"/></g><g transform="translate(422 170) rotate(0 42 68.5)"><path d="M55.11 128.92 C65.38 131.8, 75.66 134.67, 84 137 M55.11 128.92 C65.89 131.94, 76.68 134.95, 84 137" stroke="#7048e8" stroke-width="2" fill="none"/></g><g transform="translate(422 170) rotate(0 42 68.5)"><path d="M67.06 112.24 C73.08 121.05, 79.11 129.85, 84 137 M67.06 112.24 C73.38 121.49, 79.71 130.73, 84 137" stroke="#7048e8" stroke-width="2" fill="none"/></g></g><mask/><g transform="translate(323.6 230) rotate(0 96.19999999999999 10)"><text x="96.2" y="0" font-family="Virgil, Segoe UI Emoji" font-size="14px" fill="#1e1e1e" text-anchor="middle" style="white-space: pre;" direction="ltr" dominant-baseline="text-before-edge">generate-stdlib-fs.sh</text></g><g stroke-linecap="round"><g transform="translate(683 180) rotate(0 -30 57)"><path d="M0 0 C-15.92 30.25, -31.84 60.5, -60 114 M0 0 C-23.15 43.99, -46.31 87.98, -60 114" stroke="#7048e8" stroke-width="2" fill="none"/></g><g transform="translate(683 180) rotate(0 -30 57)"><path d="M-55.95 84.27 C-57.02 92.16, -58.1 100.05, -60 114 M-55.95 84.27 C-57.51 95.75, -59.08 107.22, -60 114" stroke="#7048e8" stroke-width="2" fill="none"/></g><g transform="translate(683 180) rotate(0 -30 57)"><path d="M-37.79 93.83 C-43.68 99.18, -49.58 104.54, -60 114 M-37.79 93.83 C-46.36 101.61, -54.93 109.4, -60 114" stroke="#7048e8" stroke-width="2" fill="none"/></g></g><mask/><g transform="translate(656.6 230) rotate(0 79.40000000000003 10)"><text x="79.4" y="0" font-family="Virgil, Segoe UI Emoji" font-size="14px" fill="#1e1e1e" text-anchor="middle" style="white-space: pre;" direction="ltr" dominant-baseline="text-before-edge">bundled as stdlib</text></g><g stroke-linecap="round"><g transform="translate(1002 170) rotate(0 -16.5 60.5)"><path d="M0 0 C-6.71 24.6, -13.42 49.2, -33 121 M0 0 C-9.16 33.6, -18.33 67.19, -33 121" stroke="#9c36b5" stroke-width="2" fill="none"/></g><g transform="translate(1002 170) rotate(0 -16.5 60.5)"><path d="M-35.48 91.1 C-34.98 97.18, -34.47 103.26, -33 121 M-35.48 91.1 C-34.79 99.4, -34.1 107.7, -33 121" stroke="#9c36b5" stroke-width="2" fill="none"/></g><g transform="translate(1002 170) rotate(0 -16.5 60.5)"><path d="M-15.68 96.5 C-19.2 101.48, -22.73 106.46, -33 121 M-15.68 96.5 C-20.49 103.3, -25.3 110.11, -33 121" stroke="#9c36b5" stroke-width="2" fill="none"/></g></g><mask/><g transform="translate(982.8 230) rotate(0 96.20000000000005 10)"><text x="96.2" y="0" font-family="Virgil, Segoe UI Emoji" font-size="14px" fill="#1e1e1e" text-anchor="middle" style="white-space: pre;" direction="ltr" dominant-baseline="text-before-edge">build-variant.sh</text><text x="96.2" y="17.5" font-family="Virgil, Segoe UI Emoji" font-size="14px" fill="#1e1e1e" text-anchor="middle" style="white-space: pre;" direction="ltr" dominant-baseline="text-before-edge">zig cc → wasm32-wasi</text></g><g stroke-linecap="round"><g transform="translate(292 413) rotate(0 112.5 58.5)"><path d="M0 0 C46.21 25.23, 92.42 50.47, 141 77 M0 0 C37.51 20.49, 75.03 40.97, 141 77 M141 77 C169.22 90.44, 197.43 103.87, 225 117 M141 77 C161.41 86.72, 181.83 96.44, 225 117" stroke="#1971c2" stroke-width="2" fill="none"/></g><g transform="translate(292 413) rotate(0 112.5 58.5)"><path d="M195.14 114.14 C204.92 115.08, 214.71 116.02, 225 117 M195.14 114.14 C203.08 114.9, 211.03 115.66, 225 117" stroke="#1971c2" stroke-width="2" fill="none"/></g><g transform="translate(292 413) rotate(0 112.5 58.5)"><path d="M203.96 95.62 C210.85 102.62, 217.75 109.63, 225 117 M203.96 95.62 C209.56 101.31, 215.16 106.99, 225 117" stroke="#1971c2" stroke-width="2" fill="none"/></g></g><mask/><g transform="translate(401 470) rotate(0 71 10)"><text x="71" y="0" font-family="Virgil, Segoe UI Emoji" font-size="14px" fill="#1e1e1e" text-anchor="middle" style="white-space: pre;" direction="ltr" dominant-baseline="text-before-edge">embedded binary</text></g><g stroke-linecap="round"><g transform="translate(586 431) rotate(0 0 45)"><path d="M0 0 C0 23.37, 0 46.75, 0 90 M0 0 C0 18.96, 0 37.91, 0 90" stroke="#1971c2" stroke-width="2" fill="none"/></g><g transform="translate(586 431) rotate(0 0 45)"><path d="M-10.26 61.81 C-7.6 69.13, -4.93 76.45, 0 90 M-10.26 61.81 C-8.1 67.75, -5.94 73.68, 0 90" stroke="#1971c2" stroke-width="2" fill="none"/></g><g transform="translate(586 431) rotate(0 0 45)"><path d="M10.26 61.81 C7.6 69.13, 4.93 76.45, 0 90 M10.26 61.81 C8.1 67.75, 5.94 73.68, 0 90" stroke="#1971c2" stroke-width="2" fill="none"/></g></g><mask/><g transform="translate(584.8 446) rotate(0 96.19999999999999 10)"><text x="96.2" y="0" font-family="Virgil, Segoe UI Emoji" font-size="14px" fill="#1e1e1e" text-anchor="middle" style="white-space: pre;" direction="ltr" dominant-baseline="text-before-edge">imported as TS module</text></g><g stroke-linecap="round"><g transform="translate(881 419) rotate(0 -105.5 56.5)"><path d="M0 0 C-25.49 19.67, -50.98 39.34, -92 71 M0 0 C-31.14 24.03, -62.27 48.06, -92 71 M-92 71 C-118.18 80.24, -144.36 89.48, -211 113 M-92 71 C-125.63 82.87, -159.25 94.74, -211 113" stroke="#1971c2" stroke-width="2" fill="none"/></g><g transform="translate(881 419) rotate(0 -105.5 56.5)"><path d="M-187.83 93.94 C-194.25 99.22, -200.67 104.5, -211 113 M-187.83 93.94 C-195.67 100.39, -203.51 106.84, -211 113" stroke="#1971c2" stroke-width="2" fill="none"/></g><g transform="translate(881 419) rotate(0 -105.5 56.5)"><path d="M-181 113.29 C-189.31 113.21, -197.62 113.13, -211 113 M-181 113.29 C-191.15 113.19, -201.31 113.09, -211 113" stroke="#1971c2" stroke-width="2" fill="none"/></g></g><mask/><g transform="translate(817 470) rotate(0 92 10)"><text x="92" y="0" font-family="Virgil, Segoe UI Emoji" font-size="14px" fill="#1e1e1e" text-anchor="middle" style="white-space: pre;" direction="ltr" dominant-baseline="text-before-edge">wasm_modules binding</text></g><g stroke-linecap="round"><g transform="translate(538 592) rotate(0 -101.5 64.5)"><path d="M0 0 C-39.25 23.35, -78.51 46.7, -116 69 M-116 69 C-147.58 90.78, -179.16 112.56, -203 129" stroke="#2f9e44" stroke-width="2.5" fill="none" stroke-dasharray="8 10"/></g><g transform="translate(538 592) rotate(0 -101.5 64.5)"><path d="M-185.62 104.55 C-191.5 112.82, -197.38 121.1, -203 129" stroke="#2f9e44" stroke-width="2.5" fill="none"/></g><g transform="translate(538 592) rotate(0 -101.5 64.5)"><path d="M-173.97 121.44 C-183.79 124, -193.62 126.56, -203 129" stroke="#2f9e44" stroke-width="2.5" fill="none"/></g></g><mask/><g transform="translate(380.6 632) rotate(0 54.19999999999999 10)"><text x="54.2" y="0" font-family="Virgil, Segoe UI Emoji" font-size="14px" fill="#1e1e1e" text-anchor="middle" style="white-space: pre;" direction="ltr" dominant-baseline="text-before-edge">mount files</text></g><g stroke-linecap="round"><g transform="translate(525 593) rotate(0 30.5 50.5)"><path d="M0 0 C18.25 30.22, 36.51 60.45, 61 101" stroke="#fd7e14" stroke-width="2.5" fill="none" stroke-dasharray="8 10"/></g><g transform="translate(525 593) rotate(0 30.5 50.5)"><path d="M37.64 82.17 C44.63 87.81, 51.62 93.44, 61 101" stroke="#fd7e14" stroke-width="2.5" fill="none"/></g><g transform="translate(525 593) rotate(0 30.5 50.5)"><path d="M55.21 71.56 C56.94 80.37, 58.67 89.18, 61 101" stroke="#fd7e14" stroke-width="2.5" fill="none"/></g></g><mask/><g transform="translate(591.6 632) rotate(0 37.400000000000034 10)"><text x="37.400000000000006" y="0" font-family="Virgil, Segoe UI Emoji" font-size="14px" fill="#1e1e1e" text-anchor="middle" style="white-space: pre;" direction="ltr" dominant-baseline="text-before-edge">set env</text></g><g stroke-linecap="round"><g transform="translate(694 592) rotate(0 69 61.5)"><path d="M0 0 C19.62 24.17, 39.23 48.34, 56 69 M56 69 C75.54 81.87, 95.08 94.74, 138 123" stroke="#9c36b5" stroke-width="2.5" fill="none" stroke-dasharray="8 10"/></g><g transform="translate(694 592) rotate(0 69 61.5)"><path d="M108.81 116.06 C119.04 118.49, 129.26 120.92, 138 123" stroke="#9c36b5" stroke-width="2.5" fill="none"/></g><g transform="translate(694 592) rotate(0 69 61.5)"><path d="M120.1 98.93 C126.37 107.36, 132.64 115.79, 138 123" stroke="#9c36b5" stroke-width="2.5" fill="none"/></g></g><mask/><g transform="translate(727.8 632) rotate(0 75.19999999999999 10)"><text x="75.2" y="0" font-family="Virgil, Segoe UI Emoji" font-size="14px" fill="#1e1e1e" text-anchor="middle" style="white-space: pre;" direction="ltr" dominant-baseline="text-before-edge">register modules</text></g><g stroke-linecap="round"><g transform="translate(325 812) rotate(0 100.5 68.5)"><path d="M0 0 C40.89 30.13, 81.77 60.26, 133 98 M0 0 C35.68 26.29, 71.36 52.58, 133 98 M133 98 C153.56 109.79, 174.11 121.58, 201 137 M133 98 C155.71 111.03, 178.43 124.05, 201 137" stroke="#7048e8" stroke-width="2" fill="none"/></g><g transform="translate(325 812) rotate(0 100.5 68.5)"><path d="M171.44 131.88 C180.53 133.45, 189.62 135.03, 201 137 M171.44 131.88 C179.37 133.25, 187.3 134.63, 201 137" stroke="#7048e8" stroke-width="2" fill="none"/></g><g transform="translate(325 812) rotate(0 100.5 68.5)"><path d="M181.65 114.07 C187.6 121.12, 193.55 128.17, 201 137 M181.65 114.07 C186.84 120.22, 192.03 126.38, 201 137" stroke="#7048e8" stroke-width="2" fill="none"/></g></g><mask/><g transform="translate(417.6 881) rotate(0 58.400000000000034 10)"><text x="58.400000000000006" y="0" font-family="Virgil, Segoe UI Emoji" font-size="14px" fill="#1e1e1e" text-anchor="middle" style="white-space: pre;" direction="ltr" dominant-baseline="text-before-edge">WASI fd_read</text></g><g stroke-linecap="round"><g transform="translate(586 834) rotate(0 0 53.5)"><path d="M0 0 C0 25.63, 0 51.27, 0 107 M0 0 C0 29.2, 0 58.4, 0 107" stroke="#7048e8" stroke-width="2" fill="none"/></g><g transform="translate(586 834) rotate(0 0 53.5)"><path d="M-10.26 78.81 C-7.8 85.56, -5.34 92.32, 0 107 M-10.26 78.81 C-7.46 86.5, -4.66 94.19, 0 107" stroke="#7048e8" stroke-width="2" fill="none"/></g><g transform="translate(586 834) rotate(0 0 53.5)"><path d="M10.26 78.81 C7.8 85.56, 5.34 92.32, 0 107 M10.26 78.81 C7.46 86.5, 4.66 94.19, 0 107" stroke="#7048e8" stroke-width="2" fill="none"/></g></g><mask/><g transform="translate(578.4 857) rotate(0 62.60000000000002 10)"><text x="62.6" y="0" font-family="Virgil, Segoe UI Emoji" font-size="14px" fill="#1e1e1e" text-anchor="middle" style="white-space: pre;" direction="ltr" dominant-baseline="text-before-edge">import search</text></g><g stroke-linecap="round"><g transform="translate(845 820) rotate(0 -98.5 64.5)"><path d="M0 0 C-36.87 26.98, -73.75 53.96, -123 90 M0 0 C-45.13 33.02, -90.25 66.04, -123 90 M-123 90 C-145.47 101.84, -167.95 113.69, -197 129 M-123 90 C-151.28 104.91, -179.57 119.81, -197 129" stroke="#7048e8" stroke-width="2" fill="none"/></g><g transform="translate(845 820) rotate(0 -98.5 64.5)"><path d="M-176.84 106.78 C-182.89 113.44, -188.93 120.1, -197 129 M-176.84 106.78 C-184.24 114.93, -191.63 123.08, -197 129" stroke="#7048e8" stroke-width="2" fill="none"/></g><g transform="translate(845 820) rotate(0 -98.5 64.5)"><path d="M-167.28 124.93 C-176.19 126.15, -185.1 127.37, -197 129 M-167.28 124.93 C-178.18 126.43, -189.09 127.92, -197 129" stroke="#7048e8" stroke-width="2" fill="none"/></g></g><mask/><g transform="translate(786.2 881) rotate(0 66.80000000000001 10)"><text x="66.80000000000001" y="0" font-family="Virgil, Segoe UI Emoji" font-size="14px" fill="#1e1e1e" text-anchor="middle" style="white-space: pre;" direction="ltr" dominant-baseline="text-before-edge">PyInit_*</text><text x="66.80000000000001" y="17.5" font-family="Virgil, Segoe UI Emoji" font-size="14px" fill="#1e1e1e" text-anchor="middle" style="white-space: pre;" direction="ltr" dominant-baseline="text-before-edge">via func table</text></g><g stroke-linecap="round"><g transform="translate(586 1013) rotate(0 0 45.5)"><path d="M0 0 C0 23, 0 46, 0 91 M0 0 C0 20.66, 0 41.31, 0 91" stroke="#1971c2" stroke-width="2" fill="none"/></g><g transform="translate(586 1013) rotate(0 0 45.5)"><path d="M-10.26 62.81 C-7.67 69.93, -5.07 77.06, 0 91 M-10.26 62.81 C-7.93 69.21, -5.6 75.61, 0 91" stroke="#1971c2" stroke-width="2" fill="none"/></g><g transform="translate(586 1013) rotate(0 0 45.5)"><path d="M10.26 62.81 C7.67 69.93, 5.07 77.06, 0 91 M10.26 62.81 C7.93 69.21, 5.6 75.61, 0 91" stroke="#1971c2" stroke-width="2" fill="none"/></g></g><mask/><g transform="translate(577.8 1052) rotate(0 75.19999999999999 10)"><text x="75.2" y="0" font-family="Virgil, Segoe UI Emoji" font-size="14px" fill="#1e1e1e" text-anchor="middle" style="white-space: pre;" direction="ltr" dominant-baseline="text-before-edge">executes handler</text></g><g stroke-opacity="0.4" fill-opacity="0.4" stroke-linecap="round" transform="translate(10 10) rotate(0 579.5 220)"><path d="M32 0 C451.19 0, 870.37 0, 1127 0 M1127 0 C1148.33 0, 1159 10.67, 1159 32 M1159 32 C1159 113.16, 1159 194.32, 1159 408 M1159 408 C1159 429.33, 1148.33 440, 1127 440 M1127 440 C807.15 440, 487.3 440, 32 440 M32 440 C10.67 440, 0 429.33, 0 408 M0 408 C0 299.14, 0 190.28, 0 32 M0 32 C0 10.67, 10.67 0, 32 0" stroke="#868e96" stroke-width="1.5" fill="none" stroke-dasharray="8 9"/></g><g stroke-opacity="0.4" fill-opacity="0.4" transform="translate(20 15) rotate(0 50 10)"><text x="0" y="0" font-family="Virgil, Segoe UI Emoji" font-size="14px" fill="#868e96" text-anchor="start" style="white-space: pre;" direction="ltr" dominant-baseline="text-before-edge">Build Time</text></g><g stroke-opacity="0.4" fill-opacity="0.4" stroke-linecap="round" transform="translate(148 661) rotate(0 448 277.5)"><path d="M32 0 C246.3 0, 460.6 0, 864 0 M864 0 C885.33 0, 896 10.67, 896 32 M896 32 C896 163.85, 896 295.7, 896 523 M896 523 C896 544.33, 885.33 555, 864 555 M864 555 C679.86 555, 495.71 555, 32 555 M32 555 C10.67 555, 0 544.33, 0 523 M0 523 C0 386.88, 0 250.77, 0 32 M0 32 C0 10.67, 10.67 0, 32 0" stroke="#868e96" stroke-width="1.5" fill="none" stroke-dasharray="8 9"/></g><g stroke-opacity="0.4" fill-opacity="0.4" transform="translate(158 666) rotate(0 83.60000000000002 10)"><text x="0" y="0" font-family="Virgil, Segoe UI Emoji" font-size="14px" fill="#868e96" text-anchor="start" style="white-space: pre;" direction="ltr" dominant-baseline="text-before-edge">Runtime (PythonDO)</text></g></svg>