<svg version="1.1" xmlns="http://www.w3.org/2000/svg" viewBox="0 0 1247.6 1196" width="1247.6" height="1196">
  <!-- svg-source:excalidraw -->
  
  <defs>
    <style class="style-fonts">
      @font-face {
        font-family: "Virgil";
        src: url("https://unpkg.com/@excalidraw/excalidraw@undefined/dist/excalidraw-assets/Virgil.woff2");
      }
      @font-face {
        font-family: "Cascadia";
        src: url("https://unpkg.com/@excalidraw/excalidraw@undefined/dist/excalidraw-assets/Cascadia.woff2");
      }
      @font-face {
        font-family: "Assistant";
        src: url("https://unpkg.com/@excalidraw/excalidraw@undefined/dist/excalidraw-assets/Assistant-Regular.woff2");
      }
    </style>
    
  </defs>
  <rect x="0" y="0" width="1247.6" height="1196" fill="#ffffff"/><g stroke-linecap="round" transform="translate(70 20) rotate(0 100 64)"><path d="M32 0 C71.95 -1.01, 114.02 5.82, 168 0 C187.9 -2.59, 196.8 9.66, 200 32 C201.15 50, 199.93 65.63, 200 96 C202.86 119.58, 191.23 127.45, 168 128 C123.12 127.94, 68.58 131.04, 32 128 C10.43 131.51, 0.77 120.49, 0 96 C-0.92 72.31, 2.81 49.13, 0 32 C-1.49 12.04, 9.18 1.4, 32 0" stroke="none" stroke-width="0" fill="#ffc9c9"/><path d="M32 0 C70.91 -0.44, 111.43 0.75, 168 0 M32 0 C66.92 -0.68, 103.05 0.11, 168 0 M168 0 C189.77 0.8, 198.83 11.51, 200 32 M168 0 C189.7 0.99, 199.41 9.48, 200 32 M200 32 C201.6 47.01, 199.6 64.84, 200 96 M200 32 C201.08 53.15, 199.79 73.7, 200 96 M200 96 C199.02 116.62, 189.59 126.46, 168 128 M200 96 C201.79 115.6, 188.17 126.21, 168 128 M168 128 C136.83 126.47, 109.35 126.41, 32 128 M168 128 C120.44 127.73, 72.9 126.92, 32 128 M32 128 C9.54 127.64, -0.14 118.19, 0 96 M32 128 C11.41 128.62, -0.82 116.35, 0 96 M0 96 C1.42 80.32, -1.19 63.26, 0 32 M0 96 C0.51 75.85, -0.29 55.81, 0 32 M0 32 C1.27 9.15, 12.61 -1.19, 32 0 M0 32 C1.2 9.24, 12.07 -1.58, 32 0" stroke="#e03131" stroke-width="2" fill="none"/></g><g transform="translate(80 74) rotate(0 90 10)"><text x="90" y="0" font-family="Virgil, Segoe UI Emoji" font-size="16px" fill="#e03131" text-anchor="middle" style="white-space: pre;" direction="ltr" dominant-baseline="text-before-edge">☁️</text><text x="90" y="20" font-family="Virgil, Segoe UI Emoji" font-size="16px" fill="#e03131" text-anchor="middle" style="white-space: pre;" direction="ltr" dominant-baseline="text-before-edge">PyPI Wheels</text><text x="90" y="40" font-family="Virgil, Segoe UI Emoji" font-size="16px" fill="#e03131" text-anchor="middle" style="white-space: pre;" direction="ltr" dominant-baseline="text-before-edge">(pure Python)</text></g><g stroke-linecap="round" transform="translate(378 32) rotate(0 100 52)"><path d="M26 0 C85.9 2.08, 145.69 -0.47, 174 0 C188.21 -3.27, 200.1 7.24, 200 26 C204.05 39.64, 199.15 52.17, 200 78 C197.57 93.81, 188.45 101.91, 174 104 C123.78 102.52, 68.36 102.77, 26 104 C6.07 102.33, 2.17 91.86, 0 78 C0.23 68.1, -0.14 54.98, 0 26 C2.71 7.14, 8.89 3.3, 26 0" stroke="none" stroke-width="0" fill="#d0bfff"/><path d="M26 0 C62.6 -0.8, 103.46 2.09, 174 0 M26 0 C80.33 -1.9, 135.85 -1.13, 174 0 M174 0 C190.3 -1.18, 199.35 8.76, 200 26 M174 0 C190.5 -0.89, 200.55 9.82, 200 26 M200 26 C200.77 40.32, 200.03 59.8, 200 78 M200 26 C200.25 41.13, 200.22 54.93, 200 78 M200 78 C198.85 95.7, 190.71 102.65, 174 104 M200 78 C199.27 97.22, 193.48 104.7, 174 104 M174 104 C138.7 104.21, 104.69 102.65, 26 104 M174 104 C122.05 103.16, 72.21 102.29, 26 104 M26 104 C9.33 105.39, 0.42 94.93, 0 78 M26 104 C10.75 102.89, 0.42 95.69, 0 78 M0 78 C-1.57 58.18, -1.69 38.95, 0 26 M0 78 C-0.68 58.56, 0.06 39.03, 0 26 M0 26 C-0.88 8.4, 6.77 1.19, 26 0 M0 26 C1.81 10.57, 9.36 -2.29, 26 0" stroke="#7048e8" stroke-width="2" fill="none"/></g><g transform="translate(388 74) rotate(0 90 10)"><text x="90" y="0" font-family="Virgil, Segoe UI Emoji" font-size="16px" fill="#7048e8" text-anchor="middle" style="white-space: pre;" direction="ltr" dominant-baseline="text-before-edge">CPython 3.13</text><text x="90" y="20" font-family="Virgil, Segoe UI Emoji" font-size="16px" fill="#7048e8" text-anchor="middle" style="white-space: pre;" direction="ltr" dominant-baseline="text-before-edge">Standard Library</text></g><g stroke-linecap="round" transform="translate(686 20) rotate(0 100 64)"><path d="M32 0 C80.36 -0.15, 124.94 -0.12, 168 0 C189.12 -2.47, 199.9 9.33, 200 32 C199.1 52.17, 197.69 78.34, 200 96 C202.24 118.04, 188.31 129.35, 168 128 C123.71 128.49, 82.31 126.91, 32 128 C8.29 131.22, 2.46 116.1, 0 96 C-0.29 80.56, -2.5 65.11, 0 32 C1.92 8.87, 9.97 -1.47, 32 0" stroke="none" stroke-width="0" fill="#d0bfff"/><path d="M32 0 C65.29 -0.08, 93.72 -1.01, 168 0 M32 0 C74.28 -1.58, 116.94 -0.99, 168 0 M168 0 C188.58 0.31, 199.73 10.48, 200 32 M168 0 C187.95 -0.2, 197.95 10.79, 200 32 M200 32 C201.37 48.52, 201.58 67.95, 200 96 M200 32 C199.36 46.21, 200.17 57.57, 200 96 M200 96 C198.03 119.32, 190.42 129.99, 168 128 M200 96 C200.31 118.93, 189.44 127.45, 168 128 M168 128 C117.64 129.63, 72.02 127.9, 32 128 M168 128 C114.09 128.24, 60.89 128.12, 32 128 M32 128 C12.4 129.67, 0.86 115.9, 0 96 M32 128 C11.13 126.21, -0.3 115.11, 0 96 M0 96 C0.67 80.99, 1.28 64.4, 0 32 M0 96 C0.89 81.65, -0.36 68.22, 0 32 M0 32 C-1.48 9.74, 10.96 0, 32 0 M0 32 C-1.26 11.57, 11.48 1.77, 32 0" stroke="#7048e8" stroke-width="2" fill="none"/></g><g transform="translate(696 74) rotate(0 90 10)"><text x="90" y="0" font-family="Virgil, Segoe UI Emoji" font-size="16px" fill="#7048e8" text-anchor="middle" style="white-space: pre;" direction="ltr" dominant-baseline="text-before-edge">WASI Polyfills</text><text x="90" y="20" font-family="Virgil, Segoe UI Emoji" font-size="16px" fill="#7048e8" text-anchor="middle" style="white-space: pre;" direction="ltr" dominant-baseline="text-before-edge">socket, ssl, select</text><text x="90" y="40" font-family="Virgil, Segoe UI Emoji" font-size="16px" fill="#7048e8" text-anchor="middle" style="white-space: pre;" direction="ltr" dominant-baseline="text-before-edge">threading, logging</text></g><g stroke-linecap="round" transform="translate(994 20) rotate(0 100 64)"><path d="M32 0 C64.17 -3.18, 99.26 0.16, 168 0 C187.23 2.04, 203.1 9.88, 200 32 C202.57 53.88, 201.47 72.29, 200 96 C202.53 119.89, 190.32 124.63, 168 128 C136.35 127.32, 108.5 129.53, 32 128 C13.25 126.48, -1.15 115.38, 0 96 C-3.58 83.94, 2.67 66.41, 0 32 C1.85 9.66, 7.95 1.13, 32 0" stroke="none" stroke-width="0" fill="#e599f7"/><path d="M32 0 C85.58 -2.82, 136.6 -1.16, 168 0 M32 0 C79.93 0, 128.28 0.93, 168 0 M168 0 C188.99 0.3, 201.02 12.11, 200 32 M168 0 C190.35 1.73, 200.4 11.12, 200 32 M200 32 C201.84 55.04, 199.81 78.97, 200 96 M200 32 C200.69 54.16, 200.48 74.16, 200 96 M200 96 C200.06 116.32, 191.04 126.96, 168 128 M200 96 C197.88 117.49, 187.4 128.2, 168 128 M168 128 C113.24 126.95, 62.37 127.84, 32 128 M168 128 C123 128.85, 78.52 127.65, 32 128 M32 128 C10.95 127.66, 0.74 117.55, 0 96 M32 128 C12.27 126.1, -0.46 115.97, 0 96 M0 96 C-1.37 73.52, 0.41 50.05, 0 32 M0 96 C0.5 80.5, -0.4 65.71, 0 32 M0 32 C-0.02 9.68, 10.96 0.43, 32 0 M0 32 C-2.08 11.83, 10.77 2.28, 32 0" stroke="#9c36b5" stroke-width="2" fill="none"/></g><g transform="translate(1004 74) rotate(0 90 10)"><text x="90" y="0" font-family="Virgil, Segoe UI Emoji" font-size="16px" fill="#9c36b5" text-anchor="middle" style="white-space: pre;" direction="ltr" dominant-baseline="text-before-edge">C Extension</text><text x="90" y="20" font-family="Virgil, Segoe UI Emoji" font-size="16px" fill="#9c36b5" text-anchor="middle" style="white-space: pre;" direction="ltr" dominant-baseline="text-before-edge">Recipes (*.json)</text><text x="90" y="40" font-family="Virgil, Segoe UI Emoji" font-size="16px" fill="#9c36b5" text-anchor="middle" style="white-space: pre;" direction="ltr" dominant-baseline="text-before-edge">numpy, markupsafe...</text></g><g stroke-linecap="round" transform="translate(209 279) rotate(0 100 52)"><path d="M26 0 C55.75 -0.15, 86.93 -1.14, 174 0 C194.51 2.12, 198.07 11.01, 200 26 C198.15 36.88, 203.91 49.72, 200 78 C199.16 94.58, 191.4 101.28, 174 104 C141.9 104.57, 108.96 102.68, 26 104 C8.11 102.82, 1.41 92.57, 0 78 C3.58 58.57, -1.68 45.4, 0 26 C0.3 8.4, 12.07 0.65, 26 0" stroke="none" stroke-width="0" fill="#ffec99"/><path d="M26 0 C61.15 0.42, 97.66 0.75, 174 0 M26 0 C67.68 0.57, 108.21 0.7, 174 0 M174 0 C193.11 0.19, 199.7 7.54, 200 26 M174 0 C191.17 1.43, 199.68 8.39, 200 26 M200 26 C198.94 47.06, 199.8 65.14, 200 78 M200 26 C200.16 41.76, 200.98 55.53, 200 78 M200 78 C201.38 94.51, 191.03 103.37, 174 104 M200 78 C199.46 95.69, 191.32 103.36, 174 104 M174 104 C116.94 105.66, 63.31 103.83, 26 104 M174 104 C130.31 106.15, 86.18 105.1, 26 104 M26 104 C8.5 105.75, -0.87 93.78, 0 78 M26 104 C8.87 103.46, 1.32 96.47, 0 78 M0 78 C1.08 63.17, 0.44 46.46, 0 26 M0 78 C0.09 63.5, -0.23 49.29, 0 26 M0 26 C1.28 9.02, 10.36 0.81, 26 0 M0 26 C-1.29 7.6, 10.38 1.4, 26 0" stroke="#f08c00" stroke-width="2" fill="none"/></g><g transform="translate(219 321) rotate(0 90 10)"><text x="90" y="0" font-family="Virgil, Segoe UI Emoji" font-size="16px" fill="#f08c00" text-anchor="middle" style="white-space: pre;" direction="ltr" dominant-baseline="text-before-edge">site-packages.zip</text><text x="90" y="20" font-family="Virgil, Segoe UI Emoji" font-size="16px" fill="#f08c00" text-anchor="middle" style="white-space: pre;" direction="ltr" dominant-baseline="text-before-edge">32 packages</text></g><g stroke-linecap="round" transform="translate(586 267) rotate(0 110 64)"><path d="M32 0 C68.33 0.61, 100.29 2.62, 188 0 C210.97 -0.65, 222.18 12.48, 220 32 C222.94 55.99, 217.53 70.7, 220 96 C223.56 113.94, 211.99 126.17, 188 128 C125.66 128.11, 69.31 126.4, 32 128 C9.27 128.23, -1.56 116.35, 0 96 C-1.18 69.21, -3.1 47.8, 0 32 C-2.69 10.25, 7.22 1.21, 32 0" stroke="none" stroke-width="0" fill="#d0bfff"/><path d="M32 0 C92.27 -1.65, 148.94 1.79, 188 0 M32 0 C82.71 1.07, 133.02 1.5, 188 0 M188 0 C207.67 1.48, 220.06 9.29, 220 32 M188 0 C209.28 1.62, 221.07 9.92, 220 32 M220 32 C220.05 52.79, 220.9 76.83, 220 96 M220 32 C219.93 50.34, 220.37 69.13, 220 96 M220 96 C218.39 118.29, 209.73 126.32, 188 128 M220 96 C218.77 115.49, 210.88 126.18, 188 128 M188 128 C138.31 130.72, 91.57 131.22, 32 128 M188 128 C140.83 128.93, 95.04 129.45, 32 128 M32 128 C11.36 128.26, 1.67 117.84, 0 96 M32 128 C11.37 128.22, -0.75 116.41, 0 96 M0 96 C-1.05 72.59, -0.03 48.93, 0 32 M0 96 C-0.19 76.12, -0.66 55.3, 0 32 M0 32 C-0.44 9.17, 9.98 0.08, 32 0 M0 32 C-2.07 10.43, 11.37 1.3, 32 0" stroke="#7048e8" stroke-width="2" fill="none"/></g><g transform="translate(596 321) rotate(0 100 10)"><text x="100" y="0" font-family="Virgil, Segoe UI Emoji" font-size="16px" fill="#7048e8" text-anchor="middle" style="white-space: pre;" direction="ltr" dominant-baseline="text-before-edge">stdlib-fs.ts</text><text x="100" y="20" font-family="Virgil, Segoe UI Emoji" font-size="16px" fill="#7048e8" text-anchor="middle" style="white-space: pre;" direction="ltr" dominant-baseline="text-before-edge">194 .py modules</text><text x="100" y="40" font-family="Virgil, Segoe UI Emoji" font-size="16px" fill="#7048e8" text-anchor="middle" style="white-space: pre;" direction="ltr" dominant-baseline="text-before-edge">as TS strings</text></g><g stroke-linecap="round" transform="translate(949 267) rotate(0 110 64)"><path d="M32 0 C66.71 0.22, 102.68 3.37, 188 0 C208.58 -0.93, 217.53 8.38, 220 32 C219.35 48.55, 217.91 70.61, 220 96 C222.19 117.49, 208.1 126.67, 188 128 C133.87 123.34, 70.31 125.27, 32 128 C10.73 127.3, -1.13 113.81, 0 96 C-0.48 71.86, 0.09 44.3, 0 32 C-1.71 12.96, 7.85 1.24, 32 0" stroke="none" stroke-width="0" fill="#e599f7"/><path d="M32 0 C86.72 2.6, 140.31 2.93, 188 0 M32 0 C94.68 0.58, 156.45 1.53, 188 0 M188 0 C209.47 -0.29, 221.42 10.86, 220 32 M188 0 C207.23 -1.31, 222.23 10.78, 220 32 M220 32 C218.71 51.29, 221.22 72.94, 220 96 M220 32 C220.67 50.38, 219.82 69.31, 220 96 M220 96 C220.43 116.71, 210.6 126.1, 188 128 M220 96 C220.08 117.95, 207.38 126.26, 188 128 M188 128 C139.38 126.29, 89.38 129.41, 32 128 M188 128 C127.91 125.81, 65.82 127.74, 32 128 M32 128 C11.56 127.48, -1.99 116.2, 0 96 M32 128 C12.17 127.47, -1.03 115.96, 0 96 M0 96 C0.91 80.38, -1.15 61.06, 0 32 M0 96 C0.42 74, -0.32 53.07, 0 32 M0 32 C-1.25 8.92, 12.01 0.82, 32 0 M0 32 C0.43 9.51, 12.9 -0.4, 32 0" stroke="#9c36b5" stroke-width="2" fill="none"/></g><g transform="translate(959 321) rotate(0 100 10)"><text x="100" y="0" font-family="Virgil, Segoe UI Emoji" font-size="16px" fill="#9c36b5" text-anchor="middle" style="white-space: pre;" direction="ltr" dominant-baseline="text-before-edge">python-*.wasm</text><text x="100" y="20" font-family="Virgil, Segoe UI Emoji" font-size="16px" fill="#9c36b5" text-anchor="middle" style="white-space: pre;" direction="ltr" dominant-baseline="text-before-edge">C extensions linked</text><text x="100" y="40" font-family="Virgil, Segoe UI Emoji" font-size="16px" fill="#9c36b5" text-anchor="middle" style="white-space: pre;" direction="ltr" dominant-baseline="text-before-edge">into variant binary</text></g><g stroke-linecap="round" transform="translate(546 498) rotate(0 150 25)"><path d="M12.5 0 C82.87 -0.88, 154.67 2.06, 287.5 0 C294.36 1.54, 298.2 7.68, 300 12.5 C298.2 23.97, 299.45 30.26, 300 37.5 C302.2 49.41, 296.07 51.66, 287.5 50 C208.51 45.99, 129.79 49.11, 12.5 50 C5.49 49.24, 1.85 48.27, 0 37.5 C0.85 32.44, -2.33 25.98, 0 12.5 C0.32 7.22, 2.26 -0.59, 12.5 0" stroke="none" stroke-width="0" fill="#a5d8ff"/><path d="M12.5 0 C104.26 -1.75, 195.14 0.86, 287.5 0 M12.5 0 C85.31 -0.68, 158.69 0.62, 287.5 0 M287.5 0 C295.52 1.55, 299.27 2.34, 300 12.5 M287.5 0 C294.19 2.2, 298.63 6.19, 300 12.5 M300 12.5 C300.36 18.56, 298.8 24.26, 300 37.5 M300 12.5 C299.55 18.76, 299.36 22.41, 300 37.5 M300 37.5 C300.35 44.22, 296.65 48.04, 287.5 50 M300 37.5 C302.14 48.05, 297.35 48.56, 287.5 50 M287.5 50 C222.8 51.49, 157.66 50.53, 12.5 50 M287.5 50 C228.35 48.65, 170.69 50.03, 12.5 50 M12.5 50 C3.29 51.07, 1.58 45.55, 0 37.5 M12.5 50 C5.13 52.07, -0.59 47.65, 0 37.5 M0 37.5 C-1.64 31.97, 1.65 27.44, 0 12.5 M0 37.5 C0.27 28.63, 0.28 20.19, 0 12.5 M0 12.5 C-1.79 4.51, 3.87 -0.18, 12.5 0 M0 12.5 C-1.16 4.87, 3.62 0.5, 12.5 0" stroke="#1971c2" stroke-width="2" fill="none"/></g><g transform="translate(556 513) rotate(0 140 10)"><text x="140" y="0" font-family="Virgil, Segoe UI Emoji" font-size="16px" fill="#1971c2" text-anchor="middle" style="white-space: pre;" direction="ltr" dominant-baseline="text-before-edge">🖥️</text><text x="140" y="20" font-family="Virgil, Segoe UI Emoji" font-size="16px" fill="#1971c2" text-anchor="middle" style="white-space: pre;" direction="ltr" dominant-baseline="text-before-edge">Cloudflare Worker</text><text x="140" y="40" font-family="Virgil, Segoe UI Emoji" font-size="16px" fill="#1971c2" text-anchor="middle" style="white-space: pre;" direction="ltr" dominant-baseline="text-before-edge">(worker.ts + PythonDO)</text></g><g stroke-linecap="round" transform="translate(298 663) rotate(0 90 52)"><path d="M26 0 C55.64 -3.81, 84.94 1.11, 154 0 C168.45 -3.31, 182.91 10.83, 180 26 C182.59 43.73, 182.81 56.78, 180 78 C180.93 91.86, 173.18 100.92, 154 104 C101.76 99.22, 51.78 100.04, 26 104 C5.65 103.64, 0.9 95.56, 0 78 C4.12 66.09, 4.39 52.87, 0 26 C2.88 9.89, 11.1 -1.6, 26 0" stroke="none" stroke-width="0" fill="#b2f2bb"/><path d="M26 0 C53.88 1.83, 78.24 -0.16, 154 0 M26 0 C69.57 -0.42, 114.18 -0.33, 154 0 M154 0 C170.49 -1.7, 179.88 7.99, 180 26 M154 0 C171.64 2.08, 179.76 6.41, 180 26 M180 26 C180.16 42.88, 179.31 63.69, 180 78 M180 26 C180.94 42.05, 180.76 58.1, 180 78 M180 78 C179.52 96.36, 170.08 103.59, 154 104 M180 78 C182.2 95.74, 172.2 103.15, 154 104 M154 104 C106.94 104.64, 56.88 101.38, 26 104 M154 104 C102.87 103.11, 52.54 103.68, 26 104 M26 104 C7.73 105.92, -1.4 97.15, 0 78 M26 104 C10.11 102.88, 1.65 96.26, 0 78 M0 78 C-1.41 63.74, -1.13 52.95, 0 26 M0 78 C0.38 58.89, 0.39 38.91, 0 26 M0 26 C-1.7 8.75, 7.4 -1.27, 26 0 M0 26 C-1.68 8.77, 9.96 -1.95, 26 0" stroke="#2f9e44" stroke-width="2" fill="none"/></g><g transform="translate(308 705) rotate(0 80 10)"><text x="80" y="0" font-family="Virgil, Segoe UI Emoji" font-size="16px" fill="#2f9e44" text-anchor="middle" style="white-space: pre;" direction="ltr" dominant-baseline="text-before-edge">MemFS</text><text x="80" y="20" font-family="Virgil, Segoe UI Emoji" font-size="16px" fill="#2f9e44" text-anchor="middle" style="white-space: pre;" direction="ltr" dominant-baseline="text-before-edge">/stdlib/*.py</text></g><g stroke-linecap="round" transform="translate(586 651) rotate(0 110 64)"><path d="M32 0 C74.33 -0.7, 118.59 -0.54, 188 0 C211.86 3.06, 221.28 10.81, 220 32 C219.47 57.25, 219.64 80.66, 220 96 C218.86 119.51, 212.45 131.44, 188 128 C150.33 129.26, 114.71 127.07, 32 128 C10.87 130.51, -2.16 119.32, 0 96 C-0.47 80.57, 0.61 58.79, 0 32 C-1.26 7.57, 8.73 1.56, 32 0" stroke="none" stroke-width="0" fill="#ffe8cc"/><path d="M32 0 C68.93 -1.01, 106.42 1.76, 188 0 M32 0 C77.55 0.31, 122.72 0.6, 188 0 M188 0 C207.45 1.01, 221 9.57, 220 32 M188 0 C208.89 -0.1, 222.22 9.17, 220 32 M220 32 C218.11 49.71, 220.92 67.51, 220 96 M220 32 C221.11 47.5, 220.6 63.5, 220 96 M220 96 C221.44 118.9, 208.56 127.69, 188 128 M220 96 C220.58 118.97, 209.86 128.08, 188 128 M188 128 C143.06 128.15, 94.7 127.1, 32 128 M188 128 C128.72 129.71, 69.48 130.11, 32 128 M32 128 C11.77 128.52, 1.97 117.24, 0 96 M32 128 C9.41 130.13, 0.28 116.61, 0 96 M0 96 C1.25 75.86, 2.1 58.22, 0 32 M0 96 C-0.06 73.43, 0.11 52.66, 0 32 M0 32 C-0.44 10.82, 11.88 1.41, 32 0 M0 32 C-0.4 11.05, 10.97 0.8, 32 0" stroke="#fd7e14" stroke-width="2" fill="none"/></g><g transform="translate(596 705) rotate(0 100 10)"><text x="100" y="0" font-family="Virgil, Segoe UI Emoji" font-size="16px" fill="#fd7e14" text-anchor="middle" style="white-space: pre;" direction="ltr" dominant-baseline="text-before-edge">PYTHONPATH</text><text x="100" y="20" font-family="Virgil, Segoe UI Emoji" font-size="16px" fill="#fd7e14" text-anchor="middle" style="white-space: pre;" direction="ltr" dominant-baseline="text-before-edge">/stdlib</text><text x="100" y="40" font-family="Virgil, Segoe UI Emoji" font-size="16px" fill="#fd7e14" text-anchor="middle" style="white-space: pre;" direction="ltr" dominant-baseline="text-before-edge">/stdlib/site-packages.zip</text></g><g stroke-linecap="round" transform="translate(914 651) rotate(0 110 64)"><path d="M32 0 C70.3 1.06, 110.68 1.21, 188 0 C209.45 0.03, 218.84 7.13, 220 32 C221.3 46, 219.48 63.51, 220 96 C220.78 115.89, 212.74 129.38, 188 128 C145.76 130.17, 101.9 124.39, 32 128 C12.42 125.2, 0.59 116.15, 0 96 C-2.2 77.83, -2.18 63.95, 0 32 C2.21 7.86, 7.46 -0.88, 32 0" stroke="none" stroke-width="0" fill="#e599f7"/><path d="M32 0 C82.82 -0.73, 135 -0.38, 188 0 M32 0 C66.02 -1.4, 102.61 -0.91, 188 0 M188 0 C208.26 -0.46, 219.32 11.33, 220 32 M188 0 C209.4 2.04, 220.48 11.84, 220 32 M220 32 C217.56 49.63, 218.69 65.61, 220 96 M220 32 C220.44 45.1, 221.04 58.56, 220 96 M220 96 C218.42 116.97, 209.99 128.98, 188 128 M220 96 C221.08 118.95, 208.23 128.42, 188 128 M188 128 C151.96 127.23, 115.93 128, 32 128 M188 128 C142.3 128.62, 95.12 126.9, 32 128 M32 128 C11.46 129.3, 0.76 117.57, 0 96 M32 128 C12.16 127.78, 0.19 116.43, 0 96 M0 96 C1.27 78.37, -0.2 61.92, 0 32 M0 96 C0.03 77.89, -0.09 61.41, 0 32 M0 32 C1.79 12.21, 9.64 -0.38, 32 0 M0 32 C0.66 12.73, 10.51 1.75, 32 0" stroke="#9c36b5" stroke-width="2" fill="none"/></g><g transform="translate(924 705) rotate(0 100 10)"><text x="100" y="0" font-family="Virgil, Segoe UI Emoji" font-size="16px" fill="#9c36b5" text-anchor="middle" style="white-space: pre;" direction="ltr" dominant-baseline="text-before-edge">dlopen polyfill</text><text x="100" y="20" font-family="Virgil, Segoe UI Emoji" font-size="16px" fill="#9c36b5" text-anchor="middle" style="white-space: pre;" direction="ltr" dominant-baseline="text-before-edge">shared WASM memory</text><text x="100" y="40" font-family="Virgil, Segoe UI Emoji" font-size="16px" fill="#9c36b5" text-anchor="middle" style="white-space: pre;" direction="ltr" dominant-baseline="text-before-edge">PyInit_* via func table</text></g><g stroke-linecap="round" transform="translate(546 882) rotate(0 150 25)"><path d="M12.5 0 C108.08 0.79, 205.12 1.42, 287.5 0 C294.45 0.2, 301.88 3.5, 300 12.5 C296.16 24.17, 298.96 26.07, 300 37.5 C303.2 44.76, 298.94 47.98, 287.5 50 C195.84 47.05, 108.99 49.61, 12.5 50 C6.88 51.76, -1.32 42.64, 0 37.5 C0.82 28.53, -0.03 24.02, 0 12.5 C-1.41 1.57, 5.69 2.74, 12.5 0" stroke="none" stroke-width="0" fill="#d0bfff"/><path d="M12.5 0 C82.01 -2.19, 153.54 -2.51, 287.5 0 M12.5 0 C83.21 2.41, 152.79 1.72, 287.5 0 M287.5 0 C294.47 -1.18, 298.94 4.41, 300 12.5 M287.5 0 C298.04 0.29, 299 3.77, 300 12.5 M300 12.5 C301.29 24.07, 299.64 31.19, 300 37.5 M300 12.5 C299.22 18.48, 299.06 25.44, 300 37.5 M300 37.5 C300.65 46.71, 297.45 49.91, 287.5 50 M300 37.5 C297.85 44.66, 296.55 49.16, 287.5 50 M287.5 50 C199.81 49.81, 113.02 47.55, 12.5 50 M287.5 50 C202.83 51.08, 118.38 50.79, 12.5 50 M12.5 50 C2.58 51.74, 1.45 46.53, 0 37.5 M12.5 50 C4.88 49.83, -1.28 43.61, 0 37.5 M0 37.5 C1.56 32.44, 0.87 23.96, 0 12.5 M0 37.5 C-0.23 28.43, -0.44 20.14, 0 12.5 M0 12.5 C1.31 4.61, 3.49 1.64, 12.5 0 M0 12.5 C-1.93 2.24, 5.87 -1.86, 12.5 0" stroke="#7048e8" stroke-width="2" fill="none"/></g><g transform="translate(556 897) rotate(0 140 10)"><text x="140" y="0" font-family="Virgil, Segoe UI Emoji" font-size="16px" fill="#7048e8" text-anchor="middle" style="white-space: pre;" direction="ltr" dominant-baseline="text-before-edge">🖥️</text><text x="140" y="20" font-family="Virgil, Segoe UI Emoji" font-size="16px" fill="#7048e8" text-anchor="middle" style="white-space: pre;" direction="ltr" dominant-baseline="text-before-edge">CPython 3.13 (python.wasm)</text><text x="140" y="40" font-family="Virgil, Segoe UI Emoji" font-size="16px" fill="#7048e8" text-anchor="middle" style="white-space: pre;" direction="ltr" dominant-baseline="text-before-edge">Asyncify + WASI</text></g><g stroke-linecap="round" transform="translate(556 1034) rotate(0 140 76)"><path d="M32 0 C78.89 -1.55, 128.25 -1.15, 248 0 C271.74 -0.55, 279.6 11.95, 280 32 C281.07 63.17, 277.44 96.38, 280 120 C281.48 139.32, 272.54 152.89, 248 152 C196.89 156.88, 146.3 156.53, 32 152 C11.98 150.14, -3.35 143.51, 0 120 C3.46 95.25, 1.84 69.96, 0 32 C-1.91 10.07, 8.45 3.05, 32 0" stroke="none" stroke-width="0" fill="#e7f5ff"/><path d="M32 0 C80.06 0.64, 127.6 0.21, 248 0 M32 0 C78.53 -0.7, 125.67 0.06, 248 0 M248 0 C268.24 -0.82, 280.08 10.98, 280 32 M248 0 C267.57 0.28, 278.46 8.43, 280 32 M280 32 C279.21 52.01, 278.89 72.55, 280 120 M280 32 C280.24 60.26, 280.47 87.3, 280 120 M280 120 C281.37 142.15, 270.42 151.02, 248 152 M280 120 C281.45 139.98, 269.25 151.74, 248 152 M248 152 C196.84 153.91, 147.24 154.76, 32 152 M248 152 C169.47 153.9, 91.97 154.31, 32 152 M32 152 C11.69 151.9, 0.93 140.69, 0 120 M32 152 C10.69 152.44, -1.7 139.28, 0 120 M0 120 C1.72 100.41, 2.02 80.2, 0 32 M0 120 C0.04 98.59, 0.52 75.93, 0 32 M0 32 C-0.96 8.68, 10.95 -1.68, 32 0 M0 32 C-0.94 11.87, 9.36 0.45, 32 0" stroke="#1971c2" stroke-width="2" fill="none"/></g><g transform="translate(566 1100) rotate(0 130 10)"><text x="130" y="0" font-family="Virgil, Segoe UI Emoji" font-size="16px" fill="#1971c2" text-anchor="middle" style="white-space: pre;" direction="ltr" dominant-baseline="text-before-edge">👤</text><text x="130" y="20" font-family="Virgil, Segoe UI Emoji" font-size="16px" fill="#1971c2" text-anchor="middle" style="white-space: pre;" direction="ltr" dominant-baseline="text-before-edge">Your Python Code</text><text x="130" y="40" font-family="Virgil, Segoe UI Emoji" font-size="16px" fill="#1971c2" text-anchor="middle" style="white-space: pre;" direction="ltr" dominant-baseline="text-before-edge">import jinja2, numpy</text><text x="130" y="60" font-family="Virgil, Segoe UI Emoji" font-size="16px" fill="#1971c2" text-anchor="middle" style="white-space: pre;" direction="ltr" dominant-baseline="text-before-edge">def on_fetch(req, env):</text></g><g transform="translate(10 10) rotate(0 50 12.75)"><text x="0" y="0" font-family="Virgil, Segoe UI Emoji" font-size="14px" fill="#868e96" text-anchor="start" style="white-space: pre;" direction="ltr" dominant-baseline="text-before-edge">BUILD TIME</text></g><g transform="translate(10 490) rotate(0 113 12.75)"><text x="0" y="0" font-family="Virgil, Segoe UI Emoji" font-size="14px" fill="#868e96" text-anchor="start" style="white-space: pre;" direction="ltr" dominant-baseline="text-before-edge">DEPLOY (CF Worker Bundle)</text></g><g transform="translate(10 700) rotate(0 96.2 12.75)"><text x="0" y="0" font-family="Virgil, Segoe UI Emoji" font-size="14px" fill="#868e96" text-anchor="start" style="white-space: pre;" direction="ltr" dominant-baseline="text-before-edge">RUNTIME (per request)</text></g><g stroke-linecap="round"><g transform="translate(203 144) rotate(0 36 63.5)"><path d="M0 0 C16.39 28.91, 32.78 57.82, 72 127 M0 0 C18.37 32.41, 36.75 64.82, 72 127" stroke="#f08c00" stroke-width="2" fill="none"/></g><g transform="translate(203 144) rotate(0 36 63.5)"><path d="M49.17 107.54 C54.37 111.97, 59.56 116.4, 72 127 M49.17 107.54 C55 112.5, 60.82 117.47, 72 127" stroke="#f08c00" stroke-width="2" fill="none"/></g><g transform="translate(203 144) rotate(0 36 63.5)"><path d="M67.02 97.42 C68.16 104.15, 69.29 110.89, 72 127 M67.02 97.42 C68.29 104.97, 69.56 112.52, 72 127" stroke="#f08c00" stroke-width="2" fill="none"/></g></g><mask/><g transform="translate(239 195) rotate(0 50 10)"><text x="50" y="0" font-family="Virgil, Segoe UI Emoji" font-size="14px" fill="#1e1e1e" text-anchor="middle" style="white-space: pre;" direction="ltr" dominant-baseline="text-before-edge">pymode add</text></g><g stroke-linecap="round"><g transform="translate(497 135) rotate(0 58 71)"><path d="M0 0 C7.05 17.92, 14.09 35.83, 35 89 M0 0 C9.97 25.35, 19.94 50.7, 35 89 M35 89 C62.78 107.18, 90.56 125.35, 116 142 M35 89 C64.78 108.48, 94.56 127.97, 116 142" stroke="#7048e8" stroke-width="2" fill="none"/></g><g transform="translate(497 135) rotate(0 58 71)"><path d="M86.79 135.15 C92.67 136.53, 98.55 137.91, 116 142 M86.79 135.15 C95.11 137.1, 103.43 139.05, 116 142" stroke="#7048e8" stroke-width="2" fill="none"/></g><g transform="translate(497 135) rotate(0 58 71)"><path d="M98.03 117.98 C101.65 122.81, 105.26 127.65, 116 142 M98.03 117.98 C103.15 124.82, 108.27 131.66, 116 142" stroke="#7048e8" stroke-width="2" fill="none"/></g></g><mask/><g transform="translate(513.8 195) rotate(0 96.20000000000002 10)"><text x="96.2" y="0" font-family="Virgil, Segoe UI Emoji" font-size="14px" fill="#1e1e1e" text-anchor="middle" style="white-space: pre;" direction="ltr" dominant-baseline="text-before-edge">generate-stdlib-fs.sh</text></g><g stroke-linecap="round"><g transform="translate(763 146) rotate(0 -20.5 55.5)"><path d="M0 0 C-8.81 23.84, -17.61 47.69, -41 111 M0 0 C-10.26 27.77, -20.52 55.54, -41 111" stroke="#7048e8" stroke-width="2" fill="none"/></g><g transform="translate(763 146) rotate(0 -20.5 55.5)"><path d="M-40.86 81 C-40.89 87.44, -40.92 93.89, -41 111 M-40.86 81 C-40.89 88.51, -40.93 96.01, -41 111" stroke="#7048e8" stroke-width="2" fill="none"/></g><g transform="translate(763 146) rotate(0 -20.5 55.5)"><path d="M-21.61 88.11 C-25.77 93.03, -29.94 97.94, -41 111 M-21.61 88.11 C-26.46 93.84, -31.31 99.56, -41 111" stroke="#7048e8" stroke-width="2" fill="none"/></g></g><mask/><g transform="translate(748.2 195) rotate(0 45.80000000000001 10)"><text x="45.800000000000004" y="0" font-family="Virgil, Segoe UI Emoji" font-size="14px" fill="#1e1e1e" text-anchor="middle" style="white-space: pre;" direction="ltr" dominant-baseline="text-before-edge">merged in</text></g><g stroke-linecap="round"><g transform="translate(1085 148) rotate(0 -8 54)"><path d="M0 0 C-3.28 22.17, -6.57 44.34, -16 108 M0 0 C-6.2 41.83, -12.39 83.65, -16 108" stroke="#9c36b5" stroke-width="2" fill="none"/></g><g transform="translate(1085 148) rotate(0 -8 54)"><path d="M-22.02 78.61 C-20.78 84.64, -19.55 90.68, -16 108 M-22.02 78.61 C-19.69 89.99, -17.36 101.37, -16 108" stroke="#9c36b5" stroke-width="2" fill="none"/></g><g transform="translate(1085 148) rotate(0 -8 54)"><path d="M-1.72 81.62 C-4.65 87.03, -7.58 92.45, -16 108 M-1.72 81.62 C-7.25 91.83, -12.78 102.05, -16 108" stroke="#9c36b5" stroke-width="2" fill="none"/></g></g><mask/><g transform="translate(1070.4 195) rotate(0 83.59999999999997 10)"><text x="83.60000000000001" y="0" font-family="Virgil, Segoe UI Emoji" font-size="14px" fill="#1e1e1e" text-anchor="middle" style="white-space: pre;" direction="ltr" dominant-baseline="text-before-edge">build-variant.sh</text><text x="83.60000000000001" y="17.5" font-family="Virgil, Segoe UI Emoji" font-size="14px" fill="#1e1e1e" text-anchor="middle" style="white-space: pre;" direction="ltr" dominant-baseline="text-before-edge">zig cc wasm32-wasi</text></g><g stroke-linecap="round"><g transform="translate(367 374) rotate(0 125 61.5)"><path d="M0 0 C45.38 31.41, 90.75 62.83, 117 81 M0 0 C43.6 30.19, 87.21 60.38, 117 81 M117 81 C151.53 91.9, 186.06 102.81, 250 123 M117 81 C158.81 94.2, 200.62 107.41, 250 123" stroke="#1971c2" stroke-width="2" fill="none"/></g><g transform="translate(367 374) rotate(0 125 61.5)"><path d="M220.03 124.3 C231.65 123.79, 243.28 123.29, 250 123 M220.03 124.3 C231.2 123.81, 242.37 123.33, 250 123" stroke="#1971c2" stroke-width="2" fill="none"/></g><g transform="translate(367 374) rotate(0 125 61.5)"><path d="M226.21 104.73 C235.44 111.81, 244.66 118.9, 250 123 M226.21 104.73 C235.07 111.54, 243.94 118.35, 250 123" stroke="#1971c2" stroke-width="2" fill="none"/></g></g><mask/><g transform="translate(453.6 435) rotate(0 100.40000000000003 10)"><text x="100.4" y="0" font-family="Virgil, Segoe UI Emoji" font-size="14px" fill="#1e1e1e" text-anchor="middle" style="white-space: pre;" direction="ltr" dominant-baseline="text-before-edge">bundled as binary data</text></g><g stroke-linecap="round"><g transform="translate(696 396) rotate(0 0 45.5)"><path d="M0 0 C0 36.29, 0 72.57, 0 91 M0 0 C0 33.5, 0 67.01, 0 91" stroke="#1971c2" stroke-width="2" fill="none"/></g><g transform="translate(696 396) rotate(0 0 45.5)"><path d="M-10.26 62.81 C-6.17 74.05, -2.08 85.29, 0 91 M-10.26 62.81 C-6.48 73.19, -2.71 83.57, 0 91" stroke="#1971c2" stroke-width="2" fill="none"/></g><g transform="translate(696 396) rotate(0 0 45.5)"><path d="M10.26 62.81 C6.17 74.05, 2.08 85.29, 0 91 M10.26 62.81 C6.48 73.19, 2.71 83.57, 0 91" stroke="#1971c2" stroke-width="2" fill="none"/></g></g><mask/><g transform="translate(695.6 411) rotate(0 79.40000000000003 10)"><text x="79.4" y="0" font-family="Virgil, Segoe UI Emoji" font-size="14px" fill="#1e1e1e" text-anchor="middle" style="white-space: pre;" direction="ltr" dominant-baseline="text-before-edge">TypeScript import</text></g><g stroke-linecap="round"><g transform="translate(985 379) rotate(0 -111 58)"><path d="M0 0 C-36.11 23.06, -72.22 46.12, -119 76 M0 0 C-30.46 19.46, -60.93 38.91, -119 76 M-119 76 C-157.89 91.1, -196.78 106.2, -222 116 M-119 76 C-152.12 88.86, -185.24 101.72, -222 116" stroke="#1971c2" stroke-width="2" fill="none"/></g><g transform="translate(985 379) rotate(0 -111 58)"><path d="M-199.44 96.23 C-206.28 102.23, -213.13 108.23, -222 116 M-199.44 96.23 C-205.21 101.29, -210.99 106.35, -222 116" stroke="#1971c2" stroke-width="2" fill="none"/></g><g transform="translate(985 379) rotate(0 -111 58)"><path d="M-192.01 115.36 C-201.11 115.55, -210.21 115.75, -222 116 M-192.01 115.36 C-199.68 115.52, -207.36 115.69, -222 116" stroke="#1971c2" stroke-width="2" fill="none"/></g></g><mask/><g transform="translate(895 435) rotate(0 92 10)"><text x="92" y="0" font-family="Virgil, Segoe UI Emoji" font-size="14px" fill="#1e1e1e" text-anchor="middle" style="white-space: pre;" direction="ltr" dominant-baseline="text-before-edge">wasm_modules binding</text></g><g stroke-linecap="round"><g transform="translate(644 547) rotate(0 -97.5 59)"><path d="M0 0 C-39.22 17.08, -78.43 34.17, -101 44 M-101 44 C-127.05 64.51, -153.11 85.02, -195 118" stroke="#2f9e44" stroke-width="2.5" fill="none" stroke-dasharray="8 10"/></g><g transform="translate(644 547) rotate(0 -97.5 59)"><path d="M-179.2 92.5 C-185.33 102.4, -191.47 112.3, -195 118" stroke="#2f9e44" stroke-width="2.5" fill="none"/></g><g transform="translate(644 547) rotate(0 -97.5 59)"><path d="M-166.5 108.62 C-177.57 112.26, -188.63 115.91, -195 118" stroke="#2f9e44" stroke-width="2.5" fill="none"/></g></g><mask/><g transform="translate(436 587) rotate(0 71 10)"><text x="71" y="0" font-family="Virgil, Segoe UI Emoji" font-size="14px" fill="#1e1e1e" text-anchor="middle" style="white-space: pre;" direction="ltr" dominant-baseline="text-before-edge">mount .py files</text></g><g stroke-linecap="round"><g transform="translate(642 548) rotate(0 27 45.5)"><path d="M0 0 C18.7 31.52, 37.41 63.04, 54 91" stroke="#fd7e14" stroke-width="2.5" fill="none" stroke-dasharray="8 10"/></g><g transform="translate(642 548) rotate(0 27 45.5)"><path d="M30.79 71.99 C38.83 78.58, 46.87 85.16, 54 91" stroke="#fd7e14" stroke-width="2.5" fill="none"/></g><g transform="translate(642 548) rotate(0 27 45.5)"><path d="M48.44 61.52 C50.36 71.73, 52.29 81.94, 54 91" stroke="#fd7e14" stroke-width="2.5" fill="none"/></g></g><mask/><g transform="translate(695.2 611) rotate(0 66.80000000000001 10)"><text x="66.80000000000001" y="0" font-family="Virgil, Segoe UI Emoji" font-size="14px" fill="#1e1e1e" text-anchor="middle" style="white-space: pre;" direction="ltr" dominant-baseline="text-before-edge">set PYTHONPATH</text></g><g stroke-linecap="round"><g transform="translate(799 547) rotate(0 72 56)"><path d="M0 0 C9.85 10.32, 19.7 20.64, 42 44 M42 44 C68.64 61.76, 95.28 79.52, 144 112" stroke="#9c36b5" stroke-width="2.5" fill="none" stroke-dasharray="8 10"/></g><g transform="translate(799 547) rotate(0 72 56)"><path d="M114.85 104.9 C121.69 106.56, 128.52 108.23, 144 112" stroke="#9c36b5" stroke-width="2.5" fill="none"/></g><g transform="translate(799 547) rotate(0 72 56)"><path d="M126.24 87.83 C130.4 93.49, 134.57 99.16, 144 112" stroke="#9c36b5" stroke-width="2.5" fill="none"/></g></g><mask/><g transform="translate(871 587) rotate(0 71 10)"><text x="71" y="0" font-family="Virgil, Segoe UI Emoji" font-size="14px" fill="#1e1e1e" text-anchor="middle" style="white-space: pre;" direction="ltr" dominant-baseline="text-before-edge">register C exts</text></g><g stroke-linecap="round"><g transform="translate(445 755) rotate(0 98 61)"><path d="M0 0 C29.19 19.94, 58.38 39.87, 123 84 M0 0 C38.24 26.12, 76.49 52.23, 123 84 M123 84 C140.53 93.13, 158.07 102.25, 196 122 M123 84 C150.03 98.07, 177.05 112.14, 196 122" stroke="#7048e8" stroke-width="2" fill="none"/></g><g transform="translate(445 755) rotate(0 98 61)"><path d="M166.26 118.08 C173.32 119.01, 180.37 119.94, 196 122 M166.26 118.08 C175.5 119.3, 184.75 120.52, 196 122" stroke="#7048e8" stroke-width="2" fill="none"/></g><g transform="translate(445 755) rotate(0 98 61)"><path d="M175.73 99.88 C180.54 105.13, 185.35 110.38, 196 122 M175.73 99.88 C182.03 106.76, 188.34 113.64, 196 122" stroke="#7048e8" stroke-width="2" fill="none"/></g></g><mask/><g transform="translate(535.6 818) rotate(0 58.400000000000034 10)"><text x="58.400000000000006" y="0" font-family="Virgil, Segoe UI Emoji" font-size="14px" fill="#1e1e1e" text-anchor="middle" style="white-space: pre;" direction="ltr" dominant-baseline="text-before-edge">WASI fd_read</text></g><g stroke-linecap="round"><g transform="translate(696 779) rotate(0 0 45.5)"><path d="M0 0 C0 27.17, 0 54.34, 0 91 M0 0 C0 20.95, 0 41.9, 0 91" stroke="#7048e8" stroke-width="2" fill="none"/></g><g transform="translate(696 779) rotate(0 0 45.5)"><path d="M-10.26 62.81 C-7.2 71.23, -4.13 79.64, 0 91 M-10.26 62.81 C-7.9 69.3, -5.54 75.79, 0 91" stroke="#7048e8" stroke-width="2" fill="none"/></g><g transform="translate(696 779) rotate(0 0 45.5)"><path d="M10.26 62.81 C7.2 71.23, 4.13 79.64, 0 91 M10.26 62.81 C7.9 69.3, 5.54 75.79, 0 91" stroke="#7048e8" stroke-width="2" fill="none"/></g></g><mask/><g transform="translate(694.4 794) rotate(0 83.60000000000002 10)"><text x="83.60000000000001" y="0" font-family="Virgil, Segoe UI Emoji" font-size="14px" fill="#1e1e1e" text-anchor="middle" style="white-space: pre;" direction="ltr" dominant-baseline="text-before-edge">import search path</text></g><g stroke-linecap="round"><g transform="translate(960 768) rotate(0 -97.5 55.5)"><path d="M0 0 C-17.73 14.64, -35.46 29.28, -86 71 M0 0 C-17.96 14.83, -35.93 29.66, -86 71 M-86 71 C-112.5 80.73, -139 90.45, -195 111 M-86 71 C-110.23 79.89, -134.47 88.79, -195 111" stroke="#7048e8" stroke-width="2" fill="none"/></g><g transform="translate(960 768) rotate(0 -97.5 55.5)"><path d="M-172.07 91.66 C-176.8 95.64, -181.53 99.63, -195 111 M-172.07 91.66 C-176.86 95.7, -181.65 99.74, -195 111" stroke="#7048e8" stroke-width="2" fill="none"/></g><g transform="translate(960 768) rotate(0 -97.5 55.5)"><path d="M-165 110.92 C-171.19 110.94, -177.37 110.95, -195 111 M-165 110.92 C-171.27 110.94, -177.53 110.95, -195 111" stroke="#7048e8" stroke-width="2" fill="none"/></g></g><mask/><g transform="translate(901.6 818) rotate(0 100.40000000000003 10)"><text x="100.4" y="0" font-family="Virgil, Segoe UI Emoji" font-size="14px" fill="#1e1e1e" text-anchor="middle" style="white-space: pre;" direction="ltr" dominant-baseline="text-before-edge">PyInit_* function ptrs</text></g><g stroke-linecap="round"><g transform="translate(696 932) rotate(0 0 45.5)"><path d="M0 0 C0 31.3, 0 62.59, 0 91 M0 0 C0 35.21, 0 70.41, 0 91" stroke="#1971c2" stroke-width="2" fill="none"/></g><g transform="translate(696 932) rotate(0 0 45.5)"><path d="M-10.26 62.81 C-6.73 72.5, -3.2 82.2, 0 91 M-10.26 62.81 C-6.29 73.72, -2.32 84.62, 0 91" stroke="#1971c2" stroke-width="2" fill="none"/></g><g transform="translate(696 932) rotate(0 0 45.5)"><path d="M10.26 62.81 C6.73 72.5, 3.2 82.2, 0 91 M10.26 62.81 C6.29 73.72, 2.32 84.62, 0 91" stroke="#1971c2" stroke-width="2" fill="none"/></g></g><mask/><g transform="translate(687.2 971) rotate(0 87.80000000000001 10)"><text x="87.8" y="0" font-family="Virgil, Segoe UI Emoji" font-size="14px" fill="#1e1e1e" text-anchor="middle" style="white-space: pre;" direction="ltr" dominant-baseline="text-before-edge">executes on_fetch()</text></g></svg>